<svg width="118" height="117" viewBox="0 0 118 117" fill="none" xmlns="http://www.w3.org/2000/svg">
<path d="M67.28 116.528C64.016 116.528 59.84 113.456 54.752 107.312C49.664 101.264 44.576 93.968 39.488 85.424C34.4 76.784 30.272 69.008 27.104 62.096L13.136 107.312C12.272 110.192 10.736 112.016 8.528 112.784C6.416 113.552 3.68 113.936 0.32 113.936C2.528 108.944 5.12 102.32 8.096 94.064C11.072 85.712 16.064 71.264 23.072 50.72L35.312 14.864C35.408 14.672 35.744 13.808 36.32 12.272C36.896 10.64 37.184 9.15199 37.184 7.80799C37.184 5.50399 36.032 4.352 33.728 4.352C30.752 4.352 27.872 5.888 25.088 8.96C22.4 12.032 20.192 15.728 18.464 20.048C16.736 24.368 15.872 28.16 15.872 31.424C15.872 33.248 16.112 34.88 16.592 36.32C13.616 36.32 11.408 35.6 9.968 34.16C8.624 32.624 7.952 30.608 7.952 28.112C7.952 23.984 9.536 19.76 12.704 15.44C15.968 11.024 19.904 7.424 24.512 4.63999C29.12 1.75999 33.2 0.319996 36.752 0.319996C39.152 0.319996 40.832 0.991996 41.792 2.336C42.848 3.584 43.376 5.216 43.376 7.23199C43.376 8.86399 42.992 10.928 42.224 13.424L30.128 52.592C31.088 51.344 32.384 50 34.016 48.56C35.648 47.12 37.376 45.68 39.2 44.24L42.512 41.648C49.712 35.888 57.008 29.216 64.4 21.632C71.888 14.048 77.696 6.944 81.824 0.319996C82.208 0.799995 82.496 1.75999 82.688 3.19999C82.976 4.54399 83.12 5.69599 83.12 6.65599C83.12 17.12 65.648 34.112 30.704 57.632C35.888 66.368 40.064 73.184 43.232 78.08C46.496 82.976 50.672 88.256 55.76 93.92C60.848 99.488 67.28 105.44 75.056 111.776C74.384 113.12 73.328 114.224 71.888 115.088C70.448 116.048 68.912 116.528 67.28 116.528ZM106.195 41.792C104.467 41.792 103.027 41.408 101.875 40.64C100.819 39.776 100.291 38.576 100.291 37.04C100.291 35.12 101.443 33.392 103.747 31.856C106.051 30.32 108.403 29.552 110.803 29.552C113.971 29.552 115.555 31.04 115.555 34.016C115.555 35.84 114.547 37.616 112.531 39.344C110.611 40.976 108.499 41.792 106.195 41.792ZM88.9149 107.744C85.3629 107.744 82.6269 106.592 80.7069 104.288C78.7869 102.08 77.8269 99.2 77.8269 95.648C77.8269 91.904 78.8829 86.72 80.9949 80.096C83.2029 73.472 85.8909 67.664 89.0589 62.672C92.3229 57.68 95.4909 55.184 98.5629 55.184C99.4269 55.184 100.147 55.472 100.723 56.048C101.395 56.624 101.731 57.392 101.731 58.352C101.731 59.696 100.195 62.912 97.1229 68C93.9549 73.28 91.4109 78.032 89.4909 82.256C87.6669 86.384 86.7549 90.32 86.7549 94.064C86.7549 97.424 87.2829 99.728 88.3389 100.976C89.4909 102.128 91.3149 102.704 93.8109 102.704C101.299 102.704 108.691 95.36 115.987 80.672L117.283 82.112C114.595 90.176 110.611 96.464 105.331 100.976C100.147 105.488 94.6749 107.744 88.9149 107.744Z" fill="#666FA1"/>
<path d="M67.28 116.528C64.016 116.528 59.84 113.456 54.752 107.312C49.664 101.264 44.576 93.968 39.488 85.424C34.4 76.784 30.272 69.008 27.104 62.096L13.136 107.312C12.272 110.192 10.736 112.016 8.528 112.784C6.416 113.552 3.68 113.936 0.32 113.936C2.528 108.944 5.12 102.32 8.096 94.064C11.072 85.712 16.064 71.264 23.072 50.72L35.312 14.864C35.408 14.672 35.744 13.808 36.32 12.272C36.896 10.64 37.184 9.15199 37.184 7.80799C37.184 5.50399 36.032 4.352 33.728 4.352C30.752 4.352 27.872 5.888 25.088 8.96C22.4 12.032 20.192 15.728 18.464 20.048C16.736 24.368 15.872 28.16 15.872 31.424C15.872 33.248 16.112 34.88 16.592 36.32C13.616 36.32 11.408 35.6 9.968 34.16C8.624 32.624 7.952 30.608 7.952 28.112C7.952 23.984 9.536 19.76 12.704 15.44C15.968 11.024 19.904 7.424 24.512 4.63999C29.12 1.75999 33.2 0.319996 36.752 0.319996C39.152 0.319996 40.832 0.991996 41.792 2.336C42.848 3.584 43.376 5.216 43.376 7.23199C43.376 8.86399 42.992 10.928 42.224 13.424L30.128 52.592C31.088 51.344 32.384 50 34.016 48.56C35.648 47.12 37.376 45.68 39.2 44.24L42.512 41.648C49.712 35.888 57.008 29.216 64.4 21.632C71.888 14.048 77.696 6.944 81.824 0.319996C82.208 0.799995 82.496 1.75999 82.688 3.19999C82.976 4.54399 83.12 5.69599 83.12 6.65599C83.12 17.12 65.648 34.112 30.704 57.632C35.888 66.368 40.064 73.184 43.232 78.08C46.496 82.976 50.672 88.256 55.76 93.92C60.848 99.488 67.28 105.44 75.056 111.776C74.384 113.12 73.328 114.224 71.888 115.088C70.448 116.048 68.912 116.528 67.28 116.528ZM106.195 41.792C104.467 41.792 103.027 41.408 101.875 40.64C100.819 39.776 100.291 38.576 100.291 37.04C100.291 35.12 101.443 33.392 103.747 31.856C106.051 30.32 108.403 29.552 110.803 29.552C113.971 29.552 115.555 31.04 115.555 34.016C115.555 35.84 114.547 37.616 112.531 39.344C110.611 40.976 108.499 41.792 106.195 41.792ZM88.9149 107.744C85.3629 107.744 82.6269 106.592 80.7069 104.288C78.7869 102.08 77.8269 99.2 77.8269 95.648C77.8269 91.904 78.8829 86.72 80.9949 80.096C83.2029 73.472 85.8909 67.664 89.0589 62.672C92.3229 57.68 95.4909 55.184 98.5629 55.184C99.4269 55.184 100.147 55.472 100.723 56.048C101.395 56.624 101.731 57.392 101.731 58.352C101.731 59.696 100.195 62.912 97.1229 68C93.9549 73.28 91.4109 78.032 89.4909 82.256C87.6669 86.384 86.7549 90.32 86.7549 94.064C86.7549 97.424 87.2829 99.728 88.3389 100.976C89.4909 102.128 91.3149 102.704 93.8109 102.704C101.299 102.704 108.691 95.36 115.987 80.672L117.283 82.112C114.595 90.176 110.611 96.464 105.331 100.976C100.147 105.488 94.6749 107.744 88.9149 107.744Z" fill="url(#paint0_linear)" style="mix-blend-mode:hard-light"/>
<path d="M67.28 116.528C64.016 116.528 59.84 113.456 54.752 107.312C49.664 101.264 44.576 93.968 39.488 85.424C34.4 76.784 30.272 69.008 27.104 62.096L13.136 107.312C12.272 110.192 10.736 112.016 8.528 112.784C6.416 113.552 3.68 113.936 0.32 113.936C2.528 108.944 5.12 102.32 8.096 94.064C11.072 85.712 16.064 71.264 23.072 50.72L35.312 14.864C35.408 14.672 35.744 13.808 36.32 12.272C36.896 10.64 37.184 9.15199 37.184 7.80799C37.184 5.50399 36.032 4.352 33.728 4.352C30.752 4.352 27.872 5.888 25.088 8.96C22.4 12.032 20.192 15.728 18.464 20.048C16.736 24.368 15.872 28.16 15.872 31.424C15.872 33.248 16.112 34.88 16.592 36.32C13.616 36.32 11.408 35.6 9.968 34.16C8.624 32.624 7.952 30.608 7.952 28.112C7.952 23.984 9.536 19.76 12.704 15.44C15.968 11.024 19.904 7.424 24.512 4.63999C29.12 1.75999 33.2 0.319996 36.752 0.319996C39.152 0.319996 40.832 0.991996 41.792 2.336C42.848 3.584 43.376 5.216 43.376 7.23199C43.376 8.86399 42.992 10.928 42.224 13.424L30.128 52.592C31.088 51.344 32.384 50 34.016 48.56C35.648 47.12 37.376 45.68 39.2 44.24L42.512 41.648C49.712 35.888 57.008 29.216 64.4 21.632C71.888 14.048 77.696 6.944 81.824 0.319996C82.208 0.799995 82.496 1.75999 82.688 3.19999C82.976 4.54399 83.12 5.69599 83.12 6.65599C83.12 17.12 65.648 34.112 30.704 57.632C35.888 66.368 40.064 73.184 43.232 78.08C46.496 82.976 50.672 88.256 55.76 93.92C60.848 99.488 67.28 105.44 75.056 111.776C74.384 113.12 73.328 114.224 71.888 115.088C70.448 116.048 68.912 116.528 67.28 116.528ZM106.195 41.792C104.467 41.792 103.027 41.408 101.875 40.64C100.819 39.776 100.291 38.576 100.291 37.04C100.291 35.12 101.443 33.392 103.747 31.856C106.051 30.32 108.403 29.552 110.803 29.552C113.971 29.552 115.555 31.04 115.555 34.016C115.555 35.84 114.547 37.616 112.531 39.344C110.611 40.976 108.499 41.792 106.195 41.792ZM88.9149 107.744C85.3629 107.744 82.6269 106.592 80.7069 104.288C78.7869 102.08 77.8269 99.2 77.8269 95.648C77.8269 91.904 78.8829 86.72 80.9949 80.096C83.2029 73.472 85.8909 67.664 89.0589 62.672C92.3229 57.68 95.4909 55.184 98.5629 55.184C99.4269 55.184 100.147 55.472 100.723 56.048C101.395 56.624 101.731 57.392 101.731 58.352C101.731 59.696 100.195 62.912 97.1229 68C93.9549 73.28 91.4109 78.032 89.4909 82.256C87.6669 86.384 86.7549 90.32 86.7549 94.064C86.7549 97.424 87.2829 99.728 88.3389 100.976C89.4909 102.128 91.3149 102.704 93.8109 102.704C101.299 102.704 108.691 95.36 115.987 80.672L117.283 82.112C114.595 90.176 110.611 96.464 105.331 100.976C100.147 105.488 94.6749 107.744 88.9149 107.744Z" fill="url(#paint1_linear)"/>
<defs>
<linearGradient id="paint0_linear" x1="84" y1="-17" x2="84" y2="132" gradientUnits="userSpaceOnUse">
<stop stop-color="#A4158D"/>
<stop offset="1" stop-color="white" stop-opacity="0"/>
</linearGradient>
<linearGradient id="paint1_linear" x1="84" y1="-17" x2="84" y2="132" gradientUnits="userSpaceOnUse">
<stop stop-color="#06413A"/>
<stop offset="0.458564" stop-color="white" stop-opacity="0"/>
</linearGradient>
</defs>
</svg>
