<svg width="133" height="144" viewBox="0 0 133 144" fill="none" xmlns="http://www.w3.org/2000/svg">
<g style="mix-blend-mode:saturation" filter="url(#filter0_ddd)">
<path d="M22.8199 124.638C22.6796 128.027 21.6536 130.607 19.742 132.379C17.9774 134.003 15.9901 134.818 13.7801 134.822C11.7175 134.826 9.72692 134.02 7.8083 132.403C5.88967 130.787 4.70603 128.358 4.25736 125.118C4.36521 105.965 4.3997 86.9592 4.36083 68.1011C4.32196 49.2429 4.20776 29.5746 4.01822 9.09612C4.74879 6.148 5.92287 3.93563 7.54046 2.459C9.15805 0.982368 10.9981 0.241923 13.0608 0.237672C14.976 0.233724 16.7454 0.893066 18.3687 2.2157C20.1394 3.53801 21.3959 5.59804 22.1384 8.39578C22.1557 16.7936 22.0986 24.8231 21.967 32.4846C21.9828 40.1457 21.9995 48.2488 22.0171 56.7939C28.4938 53.9813 34.0122 50.8023 38.5721 47.257C43.2793 43.7114 47.6175 39.7982 51.5866 35.5175C55.5554 31.0894 59.5234 26.293 63.4907 21.1282C67.4576 15.8162 72.0131 10.1346 77.1572 4.08347C79.5105 2.16333 81.9395 1.20068 84.4441 1.19552C86.8014 1.19066 88.792 1.99687 90.4159 3.61415C92.0399 5.23144 92.8545 7.29238 92.8596 9.79697C92.8624 11.1229 92.4974 12.7443 91.7647 14.6611C87.3554 19.8268 83.3876 24.6968 79.8611 29.2713C76.3343 33.6985 72.8807 37.9045 69.5003 41.8894C66.1199 45.8743 62.6654 49.6383 59.1368 53.1815C55.7552 56.577 52.0049 59.7524 47.8857 62.7075C56.5973 71.9713 65.235 81.1616 73.7989 90.2784C82.3626 99.2479 90.9265 108.365 99.4908 117.629C101.116 119.688 101.931 121.97 101.936 124.475C101.941 126.979 101.135 129.044 99.5176 130.667C97.9 132.144 95.9126 132.885 93.5553 132.89C92.3767 132.892 91.0503 132.674 89.5761 132.235C88.2489 131.648 86.9946 130.693 85.8133 129.37C84.7795 128.193 82.86 126.135 80.0547 123.194C77.2493 120.253 74.0011 116.871 70.31 113.048C66.7659 109.077 62.9268 104.96 58.7928 100.696C54.8058 96.2844 50.9667 92.1671 47.2756 88.3441C43.7315 84.3735 40.5568 80.9178 37.7514 77.977C34.9461 75.0362 33.0266 72.9775 31.9928 71.801C29.1963 73.1327 25.8106 74.5394 21.8358 76.0208C21.8534 84.5659 21.9439 92.7426 22.1073 100.551C22.2704 108.212 22.508 116.241 22.8199 124.638Z" fill="url(#paint0_linear)" style="mix-blend-mode:color-dodge"/>
<path d="M22.8199 124.638C22.6796 128.027 21.6536 130.607 19.742 132.379C17.9774 134.003 15.9901 134.818 13.7801 134.822C11.7175 134.826 9.72692 134.02 7.8083 132.403C5.88967 130.787 4.70603 128.358 4.25736 125.118C4.36521 105.965 4.3997 86.9592 4.36083 68.1011C4.32196 49.2429 4.20776 29.5746 4.01822 9.09612C4.74879 6.148 5.92287 3.93563 7.54046 2.459C9.15805 0.982368 10.9981 0.241923 13.0608 0.237672C14.976 0.233724 16.7454 0.893066 18.3687 2.2157C20.1394 3.53801 21.3959 5.59804 22.1384 8.39578C22.1557 16.7936 22.0986 24.8231 21.967 32.4846C21.9828 40.1457 21.9995 48.2488 22.0171 56.7939C28.4938 53.9813 34.0122 50.8023 38.5721 47.257C43.2793 43.7114 47.6175 39.7982 51.5866 35.5175C55.5554 31.0894 59.5234 26.293 63.4907 21.1282C67.4576 15.8162 72.0131 10.1346 77.1572 4.08347C79.5105 2.16333 81.9395 1.20068 84.4441 1.19552C86.8014 1.19066 88.792 1.99687 90.4159 3.61415C92.0399 5.23144 92.8545 7.29238 92.8596 9.79697C92.8624 11.1229 92.4974 12.7443 91.7647 14.6611C87.3554 19.8268 83.3876 24.6968 79.8611 29.2713C76.3343 33.6985 72.8807 37.9045 69.5003 41.8894C66.1199 45.8743 62.6654 49.6383 59.1368 53.1815C55.7552 56.577 52.0049 59.7524 47.8857 62.7075C56.5973 71.9713 65.235 81.1616 73.7989 90.2784C82.3626 99.2479 90.9265 108.365 99.4908 117.629C101.116 119.688 101.931 121.97 101.936 124.475C101.941 126.979 101.135 129.044 99.5176 130.667C97.9 132.144 95.9126 132.885 93.5553 132.89C92.3767 132.892 91.0503 132.674 89.5761 132.235C88.2489 131.648 86.9946 130.693 85.8133 129.37C84.7795 128.193 82.86 126.135 80.0547 123.194C77.2493 120.253 74.0011 116.871 70.31 113.048C66.7659 109.077 62.9268 104.96 58.7928 100.696C54.8058 96.2844 50.9667 92.1671 47.2756 88.3441C43.7315 84.3735 40.5568 80.9178 37.7514 77.977C34.9461 75.0362 33.0266 72.9775 31.9928 71.801C29.1963 73.1327 25.8106 74.5394 21.8358 76.0208C21.8534 84.5659 21.9439 92.7426 22.1073 100.551C22.2704 108.212 22.508 116.241 22.8199 124.638Z" fill="url(#paint1_radial)"/>
<path d="M128.11 129.725C128.04 131.419 127.527 132.672 126.571 133.485C125.689 134.37 124.695 134.814 123.59 134.817C122.559 134.819 121.6 134.416 120.715 133.607C119.829 132.872 119.274 131.695 119.05 130.075C118.962 123.15 118.874 116.079 118.785 108.86C118.77 101.641 118.719 94.5689 118.631 87.6446C118.996 86.1705 119.583 85.0643 120.392 84.326C121.201 83.5877 122.121 83.2175 123.152 83.2153C124.11 83.2134 124.995 83.543 125.806 84.2044C126.692 84.8655 127.32 85.8955 127.691 87.2944C127.779 94.2187 127.831 101.29 127.845 108.51C127.934 115.729 128.022 122.8 128.11 129.725ZM117.821 69.6352C117.817 68.0145 118.33 66.6507 119.359 65.5436C120.388 64.3628 121.639 63.7709 123.112 63.7679C124.586 63.7648 125.839 64.3516 126.873 65.5281C127.98 66.6308 128.535 67.9924 128.539 69.6131C128.542 71.16 127.992 72.524 126.89 73.7049C125.861 74.812 124.61 75.367 123.136 75.3701C121.663 75.3731 120.409 74.8232 119.376 73.7203C118.342 72.5438 117.824 71.1821 117.821 69.6352Z" fill="url(#paint2_linear)" style="mix-blend-mode:color-dodge"/>
<path d="M128.11 129.725C128.04 131.419 127.527 132.672 126.571 133.485C125.689 134.37 124.695 134.814 123.59 134.817C122.559 134.819 121.6 134.416 120.715 133.607C119.829 132.872 119.274 131.695 119.05 130.075C118.962 123.15 118.874 116.079 118.785 108.86C118.77 101.641 118.719 94.5689 118.631 87.6446C118.996 86.1705 119.583 85.0643 120.392 84.326C121.201 83.5877 122.121 83.2175 123.152 83.2153C124.11 83.2134 124.995 83.543 125.806 84.2044C126.692 84.8655 127.32 85.8955 127.691 87.2944C127.779 94.2187 127.831 101.29 127.845 108.51C127.934 115.729 128.022 122.8 128.11 129.725ZM117.821 69.6352C117.817 68.0145 118.33 66.6507 119.359 65.5436C120.388 64.3628 121.639 63.7709 123.112 63.7679C124.586 63.7648 125.839 64.3516 126.873 65.5281C127.98 66.6308 128.535 67.9924 128.539 69.6131C128.542 71.16 127.992 72.524 126.89 73.7049C125.861 74.812 124.61 75.367 123.136 75.3701C121.663 75.3731 120.409 74.8232 119.376 73.7203C118.342 72.5438 117.824 71.1821 117.821 69.6352Z" fill="url(#paint3_radial)"/>
</g>
<defs>
<filter id="filter0_ddd" x="0" y="0" width="132.673" height="143.063" filterUnits="userSpaceOnUse" color-interpolation-filters="sRGB">
<feFlood flood-opacity="0" result="BackgroundImageFix"/>
<feColorMatrix in="SourceAlpha" type="matrix" values="0 0 0 0 0 0 0 0 0 0 0 0 0 0 0 0 0 0 127 0"/>
<feOffset dy="4"/>
<feGaussianBlur stdDeviation="2"/>
<feColorMatrix type="matrix" values="0 0 0 0 0 0 0 0 0 0 0 0 0 0 0 0 0 0 0.25 0"/>
<feBlend mode="normal" in2="BackgroundImageFix" result="effect1_dropShadow"/>
<feColorMatrix in="SourceAlpha" type="matrix" values="0 0 0 0 0 0 0 0 0 0 0 0 0 0 0 0 0 0 127 0"/>
<feOffset dy="4"/>
<feGaussianBlur stdDeviation="2"/>
<feColorMatrix type="matrix" values="0 0 0 0 0 0 0 0 0 0 0 0 0 0 0 0 0 0 0.25 0"/>
<feBlend mode="normal" in2="effect1_dropShadow" result="effect2_dropShadow"/>
<feColorMatrix in="SourceAlpha" type="matrix" values="0 0 0 0 0 0 0 0 0 0 0 0 0 0 0 0 0 0 127 0"/>
<feOffset dy="4"/>
<feGaussianBlur stdDeviation="2"/>
<feColorMatrix type="matrix" values="0 0 0 0 0 0 0 0 0 0 0 0 0 0 0 0 0 0 0.25 0"/>
<feBlend mode="normal" in2="effect2_dropShadow" result="effect3_dropShadow"/>
<feBlend mode="normal" in="SourceGraphic" in2="effect3_dropShadow" result="shape"/>
</filter>
<linearGradient id="paint0_linear" x1="48.315" y1="-42.8484" x2="49.7702" y2="175.422" gradientUnits="userSpaceOnUse">
<stop offset="0.464088" stop-color="#5292DE" stop-opacity="0.75"/>
<stop offset="1" stop-color="#5082BC" stop-opacity="0"/>
</linearGradient>
<radialGradient id="paint1_radial" cx="0" cy="0" r="1" gradientUnits="userSpaceOnUse" gradientTransform="translate(66.3365 67.5313) rotate(89.8819) scale(67.4033 62.1978)">
<stop stop-color="#C71ACB"/>
<stop offset="1" stop-color="white" stop-opacity="0"/>
</radialGradient>
<linearGradient id="paint2_linear" x1="48.315" y1="-42.8484" x2="49.7702" y2="175.422" gradientUnits="userSpaceOnUse">
<stop offset="0.464088" stop-color="#5292DE" stop-opacity="0.75"/>
<stop offset="1" stop-color="#5082BC" stop-opacity="0"/>
</linearGradient>
<radialGradient id="paint3_radial" cx="0" cy="0" r="1" gradientUnits="userSpaceOnUse" gradientTransform="translate(66.3365 67.5313) rotate(89.8819) scale(67.4033 62.1978)">
<stop stop-color="#C71ACB"/>
<stop offset="1" stop-color="white" stop-opacity="0"/>
</radialGradient>
</defs>
</svg>
