<svg width="127" height="138" viewBox="0 0 127 138" fill="none" xmlns="http://www.w3.org/2000/svg">
<g id="Ki" filter="url(#filter0_b)">
<path d="M20.005 126.486C19.8646 129.875 18.8386 132.455 16.927 134.227C15.1624 135.852 13.1751 136.666 10.9652 136.671C8.90257 136.675 6.91195 135.869 4.99333 134.252C3.07471 132.635 1.89107 130.207 1.4424 126.966C1.55025 107.813 1.58474 88.8076 1.54587 69.9495C1.507 51.0913 1.3928 31.423 1.20326 10.9445C1.93383 7.99644 3.10791 5.78407 4.7255 4.30744C6.34308 2.8308 8.18318 2.09036 10.2458 2.08611C12.1611 2.08216 13.9304 2.7415 15.5537 4.06413C17.3244 5.38645 18.581 7.44648 19.3234 10.2442C19.3407 18.642 19.2836 26.6716 19.1521 34.333C19.1678 41.9941 19.1845 50.0973 19.2022 58.6424C25.6789 55.8297 31.1972 52.6508 35.7571 49.1054C40.4644 45.5598 44.8025 41.6466 48.7716 37.3659C52.7404 32.9378 56.7084 28.1414 60.6757 22.9767C64.6427 17.6646 69.1982 11.983 74.3423 5.93191C76.6956 4.01176 79.1245 3.04911 81.6291 3.04395C83.9864 3.03909 85.977 3.8453 87.601 5.46259C89.2249 7.07987 90.0395 9.14081 90.0447 11.6454C90.0474 12.9714 89.6824 14.5928 88.9497 16.5096C84.5405 21.6752 80.5726 26.5453 77.0461 31.1198C73.5193 35.5469 70.0657 39.7529 66.6853 43.7378C63.305 47.7227 59.8505 51.4867 56.3219 55.0299C52.9403 58.4255 49.1899 61.6008 45.0708 64.5559C53.7823 73.8197 62.4201 83.01 70.984 92.1269C79.5476 101.096 88.1115 110.213 96.6758 119.477C98.3007 121.537 99.1157 123.818 99.1208 126.323C99.126 128.828 98.3199 130.892 96.7027 132.516C95.0851 133.993 93.0976 134.733 90.7404 134.738C89.5617 134.741 88.2353 134.522 86.7611 134.083C85.4339 133.497 84.1797 132.542 82.9983 131.218C81.9646 130.042 80.045 127.983 77.2397 125.042C74.4344 122.101 71.1861 118.719 67.495 114.897C63.9509 110.926 60.1118 106.809 55.9778 102.545C51.9908 98.1329 48.1517 94.0155 44.4606 90.1926C40.9165 86.222 37.7418 82.7663 34.9365 79.8254C32.1311 76.8846 30.2116 74.826 29.1779 73.6494C26.3813 74.9812 22.9956 76.3878 19.0208 77.8693C19.0384 86.4144 19.1289 94.591 19.2924 102.399C19.4555 110.06 19.693 118.089 20.005 126.486ZM125.295 131.573C125.225 133.267 124.712 134.521 123.756 135.333C122.874 136.219 121.88 136.663 120.775 136.665C119.744 136.667 118.785 136.264 117.9 135.456C117.014 134.721 116.459 133.543 116.235 131.923C116.147 124.999 116.059 117.927 115.97 110.708C115.955 103.489 115.904 96.4173 115.816 89.493C116.181 88.0189 116.768 86.9128 117.577 86.1744C118.386 85.4361 119.306 85.0659 120.337 85.0638C121.295 85.0618 122.18 85.3915 122.991 86.0528C123.877 86.7139 124.505 87.744 124.876 89.1428C124.964 96.0672 125.016 103.139 125.03 110.358C125.119 117.577 125.207 124.649 125.295 131.573ZM115.006 71.4836C115.002 69.863 115.515 68.4991 116.544 67.392C117.573 66.2112 118.824 65.6193 120.297 65.6163C121.771 65.6133 123.024 66.2 124.058 67.3765C125.165 68.4792 125.72 69.8409 125.724 71.4615C125.727 73.0085 125.177 74.3724 124.075 75.5533C123.046 76.6604 121.795 77.2155 120.321 77.2185C118.848 77.2215 117.595 76.6716 116.561 75.5688C115.527 74.3923 115.009 73.0305 115.006 71.4836Z" fill="#1BEBDE" fill-opacity="0.49"/>
<path d="M20.005 126.486C19.8646 129.875 18.8386 132.455 16.927 134.227C15.1624 135.852 13.1751 136.666 10.9652 136.671C8.90257 136.675 6.91195 135.869 4.99333 134.252C3.07471 132.635 1.89107 130.207 1.4424 126.966C1.55025 107.813 1.58474 88.8076 1.54587 69.9495C1.507 51.0913 1.3928 31.423 1.20326 10.9445C1.93383 7.99644 3.10791 5.78407 4.7255 4.30744C6.34308 2.8308 8.18318 2.09036 10.2458 2.08611C12.1611 2.08216 13.9304 2.7415 15.5537 4.06413C17.3244 5.38645 18.581 7.44648 19.3234 10.2442C19.3407 18.642 19.2836 26.6716 19.1521 34.333C19.1678 41.9941 19.1845 50.0973 19.2022 58.6424C25.6789 55.8297 31.1972 52.6508 35.7571 49.1054C40.4644 45.5598 44.8025 41.6466 48.7716 37.3659C52.7404 32.9378 56.7084 28.1414 60.6757 22.9767C64.6427 17.6646 69.1982 11.983 74.3423 5.93191C76.6956 4.01176 79.1245 3.04911 81.6291 3.04395C83.9864 3.03909 85.977 3.8453 87.601 5.46259C89.2249 7.07987 90.0395 9.14081 90.0447 11.6454C90.0474 12.9714 89.6824 14.5928 88.9497 16.5096C84.5405 21.6752 80.5726 26.5453 77.0461 31.1198C73.5193 35.5469 70.0657 39.7529 66.6853 43.7378C63.305 47.7227 59.8505 51.4867 56.3219 55.0299C52.9403 58.4255 49.1899 61.6008 45.0708 64.5559C53.7823 73.8197 62.4201 83.01 70.984 92.1269C79.5476 101.096 88.1115 110.213 96.6758 119.477C98.3007 121.537 99.1157 123.818 99.1208 126.323C99.126 128.828 98.3199 130.892 96.7027 132.516C95.0851 133.993 93.0976 134.733 90.7404 134.738C89.5617 134.741 88.2353 134.522 86.7611 134.083C85.4339 133.497 84.1797 132.542 82.9983 131.218C81.9646 130.042 80.045 127.983 77.2397 125.042C74.4344 122.101 71.1861 118.719 67.495 114.897C63.9509 110.926 60.1118 106.809 55.9778 102.545C51.9908 98.1329 48.1517 94.0155 44.4606 90.1926C40.9165 86.222 37.7418 82.7663 34.9365 79.8254C32.1311 76.8846 30.2116 74.826 29.1779 73.6494C26.3813 74.9812 22.9956 76.3878 19.0208 77.8693C19.0384 86.4144 19.1289 94.591 19.2924 102.399C19.4555 110.06 19.693 118.089 20.005 126.486ZM125.295 131.573C125.225 133.267 124.712 134.521 123.756 135.333C122.874 136.219 121.88 136.663 120.775 136.665C119.744 136.667 118.785 136.264 117.9 135.456C117.014 134.721 116.459 133.543 116.235 131.923C116.147 124.999 116.059 117.927 115.97 110.708C115.955 103.489 115.904 96.4173 115.816 89.493C116.181 88.0189 116.768 86.9128 117.577 86.1744C118.386 85.4361 119.306 85.0659 120.337 85.0638C121.295 85.0618 122.18 85.3915 122.991 86.0528C123.877 86.7139 124.505 87.744 124.876 89.1428C124.964 96.0672 125.016 103.139 125.03 110.358C125.119 117.577 125.207 124.649 125.295 131.573ZM115.006 71.4836C115.002 69.863 115.515 68.4991 116.544 67.392C117.573 66.2112 118.824 65.6193 120.297 65.6163C121.771 65.6133 123.024 66.2 124.058 67.3765C125.165 68.4792 125.72 69.8409 125.724 71.4615C125.727 73.0085 125.177 74.3724 124.075 75.5533C123.046 76.6604 121.795 77.2155 120.321 77.2185C118.848 77.2215 117.595 76.6716 116.561 75.5688C115.527 74.3923 115.009 73.0305 115.006 71.4836Z" fill="url(#paint0_linear)" style="mix-blend-mode:color-dodge"/>
<path d="M20.005 126.486C19.8646 129.875 18.8386 132.455 16.927 134.227C15.1624 135.852 13.1751 136.666 10.9652 136.671C8.90257 136.675 6.91195 135.869 4.99333 134.252C3.07471 132.635 1.89107 130.207 1.4424 126.966C1.55025 107.813 1.58474 88.8076 1.54587 69.9495C1.507 51.0913 1.3928 31.423 1.20326 10.9445C1.93383 7.99644 3.10791 5.78407 4.7255 4.30744C6.34308 2.8308 8.18318 2.09036 10.2458 2.08611C12.1611 2.08216 13.9304 2.7415 15.5537 4.06413C17.3244 5.38645 18.581 7.44648 19.3234 10.2442C19.3407 18.642 19.2836 26.6716 19.1521 34.333C19.1678 41.9941 19.1845 50.0973 19.2022 58.6424C25.6789 55.8297 31.1972 52.6508 35.7571 49.1054C40.4644 45.5598 44.8025 41.6466 48.7716 37.3659C52.7404 32.9378 56.7084 28.1414 60.6757 22.9767C64.6427 17.6646 69.1982 11.983 74.3423 5.93191C76.6956 4.01176 79.1245 3.04911 81.6291 3.04395C83.9864 3.03909 85.977 3.8453 87.601 5.46259C89.2249 7.07987 90.0395 9.14081 90.0447 11.6454C90.0474 12.9714 89.6824 14.5928 88.9497 16.5096C84.5405 21.6752 80.5726 26.5453 77.0461 31.1198C73.5193 35.5469 70.0657 39.7529 66.6853 43.7378C63.305 47.7227 59.8505 51.4867 56.3219 55.0299C52.9403 58.4255 49.1899 61.6008 45.0708 64.5559C53.7823 73.8197 62.4201 83.01 70.984 92.1269C79.5476 101.096 88.1115 110.213 96.6758 119.477C98.3007 121.537 99.1157 123.818 99.1208 126.323C99.126 128.828 98.3199 130.892 96.7027 132.516C95.0851 133.993 93.0976 134.733 90.7404 134.738C89.5617 134.741 88.2353 134.522 86.7611 134.083C85.4339 133.497 84.1797 132.542 82.9983 131.218C81.9646 130.042 80.045 127.983 77.2397 125.042C74.4344 122.101 71.1861 118.719 67.495 114.897C63.9509 110.926 60.1118 106.809 55.9778 102.545C51.9908 98.1329 48.1517 94.0155 44.4606 90.1926C40.9165 86.222 37.7418 82.7663 34.9365 79.8254C32.1311 76.8846 30.2116 74.826 29.1779 73.6494C26.3813 74.9812 22.9956 76.3878 19.0208 77.8693C19.0384 86.4144 19.1289 94.591 19.2924 102.399C19.4555 110.06 19.693 118.089 20.005 126.486ZM125.295 131.573C125.225 133.267 124.712 134.521 123.756 135.333C122.874 136.219 121.88 136.663 120.775 136.665C119.744 136.667 118.785 136.264 117.9 135.456C117.014 134.721 116.459 133.543 116.235 131.923C116.147 124.999 116.059 117.927 115.97 110.708C115.955 103.489 115.904 96.4173 115.816 89.493C116.181 88.0189 116.768 86.9128 117.577 86.1744C118.386 85.4361 119.306 85.0659 120.337 85.0638C121.295 85.0618 122.18 85.3915 122.991 86.0528C123.877 86.7139 124.505 87.744 124.876 89.1428C124.964 96.0672 125.016 103.139 125.03 110.358C125.119 117.577 125.207 124.649 125.295 131.573ZM115.006 71.4836C115.002 69.863 115.515 68.4991 116.544 67.392C117.573 66.2112 118.824 65.6193 120.297 65.6163C121.771 65.6133 123.024 66.2 124.058 67.3765C125.165 68.4792 125.72 69.8409 125.724 71.4615C125.727 73.0085 125.177 74.3724 124.075 75.5533C123.046 76.6604 121.795 77.2155 120.321 77.2185C118.848 77.2215 117.595 76.6716 116.561 75.5688C115.527 74.3923 115.009 73.0305 115.006 71.4836Z" fill="url(#paint1_linear)" style="mix-blend-mode:lighten"/>
<path d="M20.005 126.486L21.0041 126.528C21.0052 126.501 21.0053 126.475 21.0043 126.449L20.005 126.486ZM16.927 134.227L17.6043 134.963L17.6068 134.961L16.927 134.227ZM4.99333 134.252L4.34896 135.017L4.34896 135.017L4.99333 134.252ZM1.4424 126.966L0.442413 126.961C0.442144 127.009 0.445297 127.056 0.451847 127.104L1.4424 126.966ZM1.20326 10.9445L0.232617 10.704C0.212371 10.7857 0.202521 10.8696 0.2033 10.9538L1.20326 10.9445ZM4.7255 4.30744L5.39969 5.04599L5.39969 5.04599L4.7255 4.30744ZM15.5537 4.06413L14.9221 4.83939C14.933 4.84828 14.9441 4.85694 14.9554 4.86536L15.5537 4.06413ZM19.3234 10.2442L20.3234 10.2422C20.3232 10.1563 20.312 10.0707 20.2899 9.98773L19.3234 10.2442ZM19.1521 34.333L18.1522 34.3158C18.1521 34.3223 18.152 34.3287 18.1521 34.3351L19.1521 34.333ZM19.2022 58.6424L18.2022 58.6444C18.2029 58.981 18.3729 59.2947 18.6545 59.4791C18.9362 59.6634 19.2917 59.6937 19.6005 59.5596L19.2022 58.6424ZM35.7571 49.1054L35.1555 48.3067C35.1514 48.3098 35.1473 48.3129 35.1433 48.316L35.7571 49.1054ZM48.7716 37.3659L49.5049 38.0458C49.5087 38.0417 49.5125 38.0375 49.5163 38.0333L48.7716 37.3659ZM60.6757 22.9767L61.4688 23.5859L61.4769 23.575L60.6757 22.9767ZM74.3423 5.93191L73.7101 5.1571C73.6631 5.19545 73.6196 5.23799 73.5803 5.28421L74.3423 5.93191ZM88.9497 16.5096L89.7103 17.1588C89.7844 17.072 89.8431 16.9732 89.8838 16.8666L88.9497 16.5096ZM77.0461 31.1198L77.8283 31.7428C77.8316 31.7387 77.8348 31.7345 77.8381 31.7303L77.0461 31.1198ZM66.6853 43.7378L65.9228 43.0909L65.9228 43.0909L66.6853 43.7378ZM45.0708 64.5559L44.4878 63.7434C44.2536 63.9114 44.1033 64.1723 44.0754 64.4591C44.0476 64.746 44.1448 65.031 44.3423 65.241L45.0708 64.5559ZM70.984 92.1269L70.2551 92.8115L70.2607 92.8174L70.984 92.1269ZM96.6758 119.477L97.4608 118.858C97.4447 118.837 97.4278 118.818 97.4101 118.798L96.6758 119.477ZM96.7027 132.516L97.3769 133.254C97.3886 133.244 97.4 133.233 97.4112 133.222L96.7027 132.516ZM86.7611 134.083L86.3569 134.998C86.3955 135.015 86.4352 135.03 86.4757 135.042L86.7611 134.083ZM82.9983 131.218L82.247 131.878L82.2523 131.884L82.9983 131.218ZM77.2397 125.042L76.5161 125.732L76.5161 125.732L77.2397 125.042ZM67.495 114.897L66.749 115.562C66.7577 115.572 66.7665 115.582 66.7756 115.591L67.495 114.897ZM55.9778 102.545L55.2359 103.215C55.2437 103.224 55.2517 103.232 55.2598 103.241L55.9778 102.545ZM44.4606 90.1926L43.7146 90.8585C43.7233 90.8682 43.7321 90.8778 43.7412 90.8872L44.4606 90.1926ZM34.9365 79.8254L34.2129 80.5157L34.2129 80.5157L34.9365 79.8254ZM29.1779 73.6494L29.9291 72.9894C29.6339 72.6535 29.1516 72.5543 28.7479 72.7466L29.1779 73.6494ZM19.0208 77.8693L18.6715 76.9323C18.2796 77.0784 18.0199 77.453 18.0208 77.8713L19.0208 77.8693ZM19.2924 102.399L18.2926 102.42L18.2926 102.42L19.2924 102.399ZM19.0058 126.445C18.873 129.653 17.912 131.951 16.2472 133.494L17.6068 134.961C19.7653 132.96 20.8563 130.097 21.0041 126.528L19.0058 126.445ZM16.2498 133.492C14.6522 134.962 12.9006 135.667 10.9631 135.671L10.9672 137.671C13.4497 137.665 15.6726 136.741 17.6043 134.963L16.2498 133.492ZM10.9631 135.671C9.1853 135.674 7.41615 134.986 5.6377 133.487L4.34896 135.017C6.40776 136.751 8.61984 137.675 10.9672 137.671L10.9631 135.671ZM5.6377 133.487C3.95963 132.073 2.85828 129.901 2.43295 126.829L0.451847 127.104C0.923852 130.512 2.1898 133.197 4.34896 135.017L5.6377 133.487ZM2.44238 126.972C2.55025 107.816 2.58474 88.8082 2.54587 69.9474L0.545873 69.9515C0.584738 88.8071 0.550251 107.81 0.442413 126.961L2.44238 126.972ZM2.54587 69.9474C2.50699 51.0867 2.39277 31.416 2.20321 10.9353L0.2033 10.9538C0.392819 31.4301 0.507009 51.096 0.545873 69.9515L2.54587 69.9474ZM2.1739 11.1851C2.87473 8.35697 3.97425 6.34722 5.39969 5.04599L4.0513 3.56888C2.24157 5.22092 0.992928 7.6359 0.232617 10.704L2.1739 11.1851ZM5.39969 5.04599C6.84598 3.72572 8.45034 3.08981 10.2479 3.0861L10.2437 1.08611C7.91602 1.09091 5.84018 1.93588 4.0513 3.56889L5.39969 5.04599ZM10.2479 3.0861C11.9103 3.08268 13.4599 3.64803 14.9221 4.83939L16.1854 3.28887C14.4009 1.83497 12.4119 1.08164 10.2437 1.08611L10.2479 3.0861ZM14.9554 4.86536C16.4962 6.01604 17.6542 7.85295 18.3568 10.5007L20.2899 9.98773C19.5077 7.04 18.1526 4.75686 16.1521 3.26289L14.9554 4.86536ZM18.3234 10.2463C18.3407 18.6382 18.2836 26.6614 18.1522 34.3158L20.1519 34.3502C20.2836 26.6818 20.3407 18.6457 20.3234 10.2422L18.3234 10.2463ZM18.1521 34.3351C18.1521 34.35 18.1521 34.365 18.1521 34.38C18.1522 34.3949 18.1522 34.4099 18.1522 34.4249C18.1523 34.4398 18.1523 34.4548 18.1523 34.4698C18.1524 34.4848 18.1524 34.4997 18.1524 34.5147C18.1525 34.5297 18.1525 34.5447 18.1525 34.5596C18.1526 34.5746 18.1526 34.5896 18.1526 34.6046C18.1526 34.6196 18.1527 34.6346 18.1527 34.6495C18.1527 34.6645 18.1528 34.6795 18.1528 34.6945C18.1528 34.7095 18.1529 34.7245 18.1529 34.7395C18.1529 34.7545 18.153 34.7695 18.153 34.7845C18.153 34.7995 18.153 34.8145 18.1531 34.8295C18.1531 34.8445 18.1531 34.8595 18.1532 34.8745C18.1532 34.8895 18.1532 34.9045 18.1533 34.9195C18.1533 34.9345 18.1533 34.9495 18.1534 34.9645C18.1534 34.9795 18.1534 34.9945 18.1534 35.0096C18.1535 35.0246 18.1535 35.0396 18.1535 35.0546C18.1536 35.0696 18.1536 35.0846 18.1536 35.0997C18.1537 35.1147 18.1537 35.1297 18.1537 35.1447C18.1538 35.1597 18.1538 35.1748 18.1538 35.1898C18.1538 35.2048 18.1539 35.2199 18.1539 35.2349C18.1539 35.2499 18.154 35.2649 18.154 35.28C18.154 35.295 18.1541 35.3101 18.1541 35.3251C18.1541 35.3401 18.1542 35.3552 18.1542 35.3702C18.1542 35.3852 18.1543 35.4003 18.1543 35.4153C18.1543 35.4304 18.1543 35.4454 18.1544 35.4605C18.1544 35.4755 18.1544 35.4906 18.1545 35.5056C18.1545 35.5207 18.1545 35.5357 18.1546 35.5508C18.1546 35.5658 18.1546 35.5809 18.1547 35.5959C18.1547 35.611 18.1547 35.6261 18.1547 35.6411C18.1548 35.6562 18.1548 35.6712 18.1548 35.6863C18.1549 35.7014 18.1549 35.7164 18.1549 35.7315C18.155 35.7466 18.155 35.7616 18.155 35.7767C18.1551 35.7918 18.1551 35.8069 18.1551 35.8219C18.1552 35.837 18.1552 35.8521 18.1552 35.8672C18.1552 35.8822 18.1553 35.8973 18.1553 35.9124C18.1553 35.9275 18.1554 35.9426 18.1554 35.9576C18.1554 35.9727 18.1555 35.9878 18.1555 36.0029C18.1555 36.018 18.1556 36.0331 18.1556 36.0482C18.1556 36.0633 18.1557 36.0784 18.1557 36.0935C18.1557 36.1086 18.1557 36.1236 18.1558 36.1387C18.1558 36.1538 18.1558 36.1689 18.1559 36.184C18.1559 36.1991 18.1559 36.2142 18.156 36.2294C18.156 36.2445 18.156 36.2596 18.1561 36.2747C18.1561 36.2898 18.1561 36.3049 18.1561 36.32C18.1562 36.3351 18.1562 36.3502 18.1562 36.3653C18.1563 36.3805 18.1563 36.3956 18.1563 36.4107C18.1564 36.4258 18.1564 36.4409 18.1564 36.4561C18.1565 36.4712 18.1565 36.4863 18.1565 36.5014C18.1566 36.5165 18.1566 36.5317 18.1566 36.5468C18.1566 36.5619 18.1567 36.5771 18.1567 36.5922C18.1567 36.6073 18.1568 36.6225 18.1568 36.6376C18.1568 36.6527 18.1569 36.6679 18.1569 36.683C18.1569 36.6981 18.157 36.7133 18.157 36.7284C18.157 36.7436 18.1571 36.7587 18.1571 36.7739C18.1571 36.789 18.1571 36.8041 18.1572 36.8193C18.1572 36.8344 18.1572 36.8496 18.1573 36.8647C18.1573 36.8799 18.1573 36.895 18.1574 36.9102C18.1574 36.9254 18.1574 36.9405 18.1575 36.9557C18.1575 36.9708 18.1575 36.986 18.1576 37.0012C18.1576 37.0163 18.1576 37.0315 18.1576 37.0466C18.1577 37.0618 18.1577 37.077 18.1577 37.0922C18.1578 37.1073 18.1578 37.1225 18.1578 37.1377C18.1579 37.1528 18.1579 37.168 18.1579 37.1832C18.158 37.1984 18.158 37.2135 18.158 37.2287C18.1581 37.2439 18.1581 37.2591 18.1581 37.2743C18.1581 37.2894 18.1582 37.3046 18.1582 37.3198C18.1582 37.335 18.1583 37.3502 18.1583 37.3654C18.1583 37.3806 18.1584 37.3958 18.1584 37.4109C18.1584 37.4261 18.1585 37.4413 18.1585 37.4565C18.1585 37.4717 18.1586 37.4869 18.1586 37.5021C18.1586 37.5173 18.1586 37.5325 18.1587 37.5477C18.1587 37.5629 18.1587 37.5781 18.1588 37.5933C18.1588 37.6085 18.1588 37.6237 18.1589 37.639C18.1589 37.6542 18.1589 37.6694 18.159 37.6846C18.159 37.6998 18.159 37.715 18.1591 37.7302C18.1591 37.7454 18.1591 37.7607 18.1591 37.7759C18.1592 37.7911 18.1592 37.8063 18.1592 37.8215C18.1593 37.8368 18.1593 37.852 18.1593 37.8672C18.1594 37.8824 18.1594 37.8977 18.1594 37.9129C18.1595 37.9281 18.1595 37.9434 18.1595 37.9586C18.1596 37.9738 18.1596 37.9891 18.1596 38.0043C18.1597 38.0195 18.1597 38.0348 18.1597 38.05C18.1597 38.0653 18.1598 38.0805 18.1598 38.0957C18.1598 38.111 18.1599 38.1262 18.1599 38.1415C18.1599 38.1567 18.16 38.172 18.16 38.1872C18.16 38.2025 18.1601 38.2177 18.1601 38.233C18.1601 38.2482 18.1602 38.2635 18.1602 38.2787C18.1602 38.294 18.1602 38.3093 18.1603 38.3245C18.1603 38.3398 18.1603 38.355 18.1604 38.3703C18.1604 38.3856 18.1604 38.4008 18.1605 38.4161C18.1605 38.4314 18.1605 38.4466 18.1606 38.4619C18.1606 38.4772 18.1606 38.4924 18.1607 38.5077C18.1607 38.523 18.1607 38.5383 18.1608 38.5535C18.1608 38.5688 18.1608 38.5841 18.1608 38.5994C18.1609 38.6147 18.1609 38.6299 18.1609 38.6452C18.161 38.6605 18.161 38.6758 18.161 38.6911C18.1611 38.7064 18.1611 38.7216 18.1611 38.7369C18.1612 38.7522 18.1612 38.7675 18.1612 38.7828C18.1613 38.7981 18.1613 38.8134 18.1613 38.8287C18.1614 38.844 18.1614 38.8593 18.1614 38.8746C18.1614 38.8899 18.1615 38.9052 18.1615 38.9205C18.1615 38.9358 18.1616 38.9511 18.1616 38.9664C18.1616 38.9817 18.1617 38.997 18.1617 39.0123C18.1617 39.0277 18.1618 39.043 18.1618 39.0583C18.1618 39.0736 18.1619 39.0889 18.1619 39.1042C18.1619 39.1195 18.162 39.1349 18.162 39.1502C18.162 39.1655 18.162 39.1808 18.1621 39.1962C18.1621 39.2115 18.1621 39.2268 18.1622 39.2421C18.1622 39.2575 18.1622 39.2728 18.1623 39.2881C18.1623 39.3034 18.1623 39.3188 18.1624 39.3341C18.1624 39.3494 18.1624 39.3648 18.1625 39.3801C18.1625 39.3955 18.1625 39.4108 18.1626 39.4261C18.1626 39.4415 18.1626 39.4568 18.1626 39.4722C18.1627 39.4875 18.1627 39.5029 18.1627 39.5182C18.1628 39.5336 18.1628 39.5489 18.1628 39.5643C18.1629 39.5796 18.1629 39.595 18.1629 39.6103C18.163 39.6257 18.163 39.641 18.163 39.6564C18.1631 39.6717 18.1631 39.6871 18.1631 39.7025C18.1632 39.7178 18.1632 39.7332 18.1632 39.7485C18.1632 39.7639 18.1633 39.7793 18.1633 39.7946C18.1633 39.81 18.1634 39.8254 18.1634 39.8407C18.1634 39.8561 18.1635 39.8715 18.1635 39.8869C18.1635 39.9022 18.1636 39.9176 18.1636 39.933C18.1636 39.9484 18.1637 39.9638 18.1637 39.9791C18.1637 39.9945 18.1638 40.0099 18.1638 40.0253C18.1638 40.0407 18.1638 40.0561 18.1639 40.0714C18.1639 40.0868 18.1639 40.1022 18.164 40.1176C18.164 40.133 18.164 40.1484 18.1641 40.1638C18.1641 40.1792 18.1641 40.1946 18.1642 40.21C18.1642 40.2254 18.1642 40.2408 18.1643 40.2562C18.1643 40.2716 18.1643 40.287 18.1644 40.3024C18.1644 40.3178 18.1644 40.3332 18.1645 40.3486C18.1645 40.364 18.1645 40.3794 18.1645 40.3948C18.1646 40.4103 18.1646 40.4257 18.1646 40.4411C18.1647 40.4565 18.1647 40.4719 18.1647 40.4873C18.1648 40.5027 18.1648 40.5182 18.1648 40.5336C18.1649 40.549 18.1649 40.5644 18.1649 40.5799C18.165 40.5953 18.165 40.6107 18.165 40.6261C18.1651 40.6416 18.1651 40.657 18.1651 40.6724C18.1652 40.6879 18.1652 40.7033 18.1652 40.7187C18.1652 40.7342 18.1653 40.7496 18.1653 40.765C18.1653 40.7805 18.1654 40.7959 18.1654 40.8114C18.1654 40.8268 18.1655 40.8422 18.1655 40.8577C18.1655 40.8731 18.1656 40.8886 18.1656 40.904C18.1656 40.9195 18.1657 40.9349 18.1657 40.9504C18.1657 40.9658 18.1658 40.9813 18.1658 40.9967C18.1658 41.0122 18.1659 41.0277 18.1659 41.0431C18.1659 41.0586 18.1659 41.074 18.166 41.0895C18.166 41.105 18.166 41.1204 18.1661 41.1359C18.1661 41.1514 18.1661 41.1668 18.1662 41.1823C18.1662 41.1978 18.1662 41.2132 18.1663 41.2287C18.1663 41.2442 18.1663 41.2597 18.1664 41.2751C18.1664 41.2906 18.1664 41.3061 18.1665 41.3216C18.1665 41.337 18.1665 41.3525 18.1666 41.368C18.1666 41.3835 18.1666 41.399 18.1666 41.4145C18.1667 41.4299 18.1667 41.4454 18.1667 41.4609C18.1668 41.4764 18.1668 41.4919 18.1668 41.5074C18.1669 41.5229 18.1669 41.5384 18.1669 41.5539C18.167 41.5694 18.167 41.5849 18.167 41.6004C18.1671 41.6159 18.1671 41.6314 18.1671 41.6469C18.1672 41.6624 18.1672 41.6779 18.1672 41.6934C18.1673 41.7089 18.1673 41.7244 18.1673 41.7399C18.1674 41.7554 18.1674 41.7709 18.1674 41.7864C18.1674 41.802 18.1675 41.8175 18.1675 41.833C18.1675 41.8485 18.1676 41.864 18.1676 41.8795C18.1676 41.8951 18.1677 41.9106 18.1677 41.9261C18.1677 41.9416 18.1678 41.9571 18.1678 41.9727C18.1678 41.9882 18.1679 42.0037 18.1679 42.0193C18.1679 42.0348 18.168 42.0503 18.168 42.0658C18.168 42.0814 18.1681 42.0969 18.1681 42.1125C18.1681 42.128 18.1682 42.1435 18.1682 42.1591C18.1682 42.1746 18.1682 42.1901 18.1683 42.2057C18.1683 42.2212 18.1683 42.2368 18.1684 42.2523C18.1684 42.2679 18.1684 42.2834 18.1685 42.299C18.1685 42.3145 18.1685 42.3301 18.1686 42.3456C18.1686 42.3612 18.1686 42.3767 18.1687 42.3923C18.1687 42.4078 18.1687 42.4234 18.1688 42.439C18.1688 42.4545 18.1688 42.4701 18.1689 42.4857C18.1689 42.5012 18.1689 42.5168 18.169 42.5323C18.169 42.5479 18.169 42.5635 18.169 42.5791C18.1691 42.5946 18.1691 42.6102 18.1691 42.6258C18.1692 42.6413 18.1692 42.6569 18.1692 42.6725C18.1693 42.6881 18.1693 42.7036 18.1693 42.7192C18.1694 42.7348 18.1694 42.7504 18.1694 42.766C18.1695 42.7816 18.1695 42.7971 18.1695 42.8127C18.1696 42.8283 18.1696 42.8439 18.1696 42.8595C18.1697 42.8751 18.1697 42.8907 18.1697 42.9063C18.1698 42.9219 18.1698 42.9375 18.1698 42.9531C18.1699 42.9687 18.1699 42.9843 18.1699 42.9999C18.1699 43.0155 18.17 43.0311 18.17 43.0467C18.17 43.0623 18.1701 43.0779 18.1701 43.0935C18.1701 43.1091 18.1702 43.1247 18.1702 43.1403C18.1702 43.1559 18.1703 43.1715 18.1703 43.1871C18.1703 43.2028 18.1704 43.2184 18.1704 43.234C18.1704 43.2496 18.1705 43.2652 18.1705 43.2808C18.1705 43.2965 18.1706 43.3121 18.1706 43.3277C18.1706 43.3433 18.1707 43.359 18.1707 43.3746C18.1707 43.3902 18.1708 43.4058 18.1708 43.4215C18.1708 43.4371 18.1709 43.4527 18.1709 43.4684C18.1709 43.484 18.1709 43.4996 18.171 43.5153C18.171 43.5309 18.171 43.5466 18.1711 43.5622C18.1711 43.5778 18.1711 43.5935 18.1712 43.6091C18.1712 43.6248 18.1712 43.6404 18.1713 43.6561C18.1713 43.6717 18.1713 43.6874 18.1714 43.703C18.1714 43.7187 18.1714 43.7343 18.1715 43.75C18.1715 43.7656 18.1715 43.7813 18.1716 43.7969C18.1716 43.8126 18.1716 43.8283 18.1717 43.8439C18.1717 43.8596 18.1717 43.8752 18.1718 43.8909C18.1718 43.9066 18.1718 43.9222 18.1719 43.9379C18.1719 43.9536 18.1719 43.9692 18.1719 43.9849C18.172 44.0006 18.172 44.0163 18.172 44.0319C18.1721 44.0476 18.1721 44.0633 18.1721 44.079C18.1722 44.0946 18.1722 44.1103 18.1722 44.126C18.1723 44.1417 18.1723 44.1574 18.1723 44.173C18.1724 44.1887 18.1724 44.2044 18.1724 44.2201C18.1725 44.2358 18.1725 44.2515 18.1725 44.2672C18.1726 44.2829 18.1726 44.2986 18.1726 44.3143C18.1727 44.33 18.1727 44.3456 18.1727 44.3613C18.1728 44.377 18.1728 44.3927 18.1728 44.4084C18.1729 44.4241 18.1729 44.4399 18.1729 44.4556C18.1729 44.4713 18.173 44.487 18.173 44.5027C18.173 44.5184 18.1731 44.5341 18.1731 44.5498C18.1731 44.5655 18.1732 44.5812 18.1732 44.5969C18.1732 44.6127 18.1733 44.6284 18.1733 44.6441C18.1733 44.6598 18.1734 44.6755 18.1734 44.6913C18.1734 44.707 18.1735 44.7227 18.1735 44.7384C18.1735 44.7542 18.1736 44.7699 18.1736 44.7856C18.1736 44.8013 18.1737 44.8171 18.1737 44.8328C18.1737 44.8485 18.1738 44.8643 18.1738 44.88C18.1738 44.8957 18.1739 44.9115 18.1739 44.9272C18.1739 44.943 18.174 44.9587 18.174 44.9744C18.174 44.9902 18.1741 45.0059 18.1741 45.0217C18.1741 45.0374 18.1741 45.0532 18.1742 45.0689C18.1742 45.0847 18.1742 45.1004 18.1743 45.1162C18.1743 45.1319 18.1743 45.1477 18.1744 45.1634C18.1744 45.1792 18.1744 45.1949 18.1745 45.2107C18.1745 45.2265 18.1745 45.2422 18.1746 45.258C18.1746 45.2737 18.1746 45.2895 18.1747 45.3053C18.1747 45.321 18.1747 45.3368 18.1748 45.3526C18.1748 45.3683 18.1748 45.3841 18.1749 45.3999C18.1749 45.4157 18.1749 45.4314 18.175 45.4472C18.175 45.463 18.175 45.4788 18.1751 45.4945C18.1751 45.5103 18.1751 45.5261 18.1752 45.5419C18.1752 45.5577 18.1752 45.5734 18.1753 45.5892C18.1753 45.605 18.1753 45.6208 18.1754 45.6366C18.1754 45.6524 18.1754 45.6682 18.1754 45.684C18.1755 45.6998 18.1755 45.7156 18.1755 45.7313C18.1756 45.7471 18.1756 45.7629 18.1756 45.7787C18.1757 45.7945 18.1757 45.8103 18.1757 45.8261C18.1758 45.8419 18.1758 45.8578 18.1758 45.8736C18.1759 45.8894 18.1759 45.9052 18.1759 45.921C18.176 45.9368 18.176 45.9526 18.176 45.9684C18.1761 45.9842 18.1761 46 18.1761 46.0159C18.1762 46.0317 18.1762 46.0475 18.1762 46.0633C18.1763 46.0791 18.1763 46.095 18.1763 46.1108C18.1764 46.1266 18.1764 46.1424 18.1764 46.1583C18.1765 46.1741 18.1765 46.1899 18.1765 46.2057C18.1766 46.2216 18.1766 46.2374 18.1766 46.2532C18.1767 46.2691 18.1767 46.2849 18.1767 46.3007C18.1768 46.3166 18.1768 46.3324 18.1768 46.3483C18.1769 46.3641 18.1769 46.3799 18.1769 46.3958C18.1769 46.4116 18.177 46.4275 18.177 46.4433C18.177 46.4592 18.1771 46.475 18.1771 46.4909C18.1771 46.5067 18.1772 46.5226 18.1772 46.5384C18.1772 46.5543 18.1773 46.5701 18.1773 46.586C18.1773 46.6018 18.1774 46.6177 18.1774 46.6336C18.1774 46.6494 18.1775 46.6653 18.1775 46.6811C18.1775 46.697 18.1776 46.7129 18.1776 46.7287C18.1776 46.7446 18.1777 46.7605 18.1777 46.7763C18.1777 46.7922 18.1778 46.8081 18.1778 46.824C18.1778 46.8398 18.1779 46.8557 18.1779 46.8716C18.1779 46.8875 18.178 46.9033 18.178 46.9192C18.178 46.9351 18.1781 46.951 18.1781 46.9669C18.1781 46.9827 18.1782 46.9986 18.1782 47.0145C18.1782 47.0304 18.1783 47.0463 18.1783 47.0622C18.1783 47.0781 18.1784 47.094 18.1784 47.1099C18.1784 47.1258 18.1785 47.1416 18.1785 47.1575C18.1785 47.1734 18.1786 47.1893 18.1786 47.2052C18.1786 47.2211 18.1787 47.237 18.1787 47.2529C18.1787 47.2689 18.1787 47.2848 18.1788 47.3007C18.1788 47.3166 18.1788 47.3325 18.1789 47.3484C18.1789 47.3643 18.1789 47.3802 18.179 47.3961C18.179 47.412 18.179 47.428 18.1791 47.4439C18.1791 47.4598 18.1791 47.4757 18.1792 47.4916C18.1792 47.5076 18.1792 47.5235 18.1793 47.5394C18.1793 47.5553 18.1793 47.5713 18.1794 47.5872C18.1794 47.6031 18.1794 47.619 18.1795 47.635C18.1795 47.6509 18.1795 47.6668 18.1796 47.6828C18.1796 47.6987 18.1796 47.7146 18.1797 47.7306C18.1797 47.7465 18.1797 47.7625 18.1798 47.7784C18.1798 47.7943 18.1798 47.8103 18.1799 47.8262C18.1799 47.8422 18.1799 47.8581 18.18 47.8741C18.18 47.89 18.18 47.906 18.1801 47.9219C18.1801 47.9379 18.1801 47.9538 18.1802 47.9698C18.1802 47.9857 18.1802 48.0017 18.1803 48.0176C18.1803 48.0336 18.1803 48.0496 18.1804 48.0655C18.1804 48.0815 18.1804 48.0974 18.1805 48.1134C18.1805 48.1294 18.1805 48.1453 18.1806 48.1613C18.1806 48.1773 18.1806 48.1932 18.1807 48.2092C18.1807 48.2252 18.1807 48.2412 18.1808 48.2571C18.1808 48.2731 18.1808 48.2891 18.1809 48.3051C18.1809 48.321 18.1809 48.337 18.181 48.353C18.181 48.369 18.181 48.385 18.181 48.4009C18.1811 48.4169 18.1811 48.4329 18.1811 48.4489C18.1812 48.4649 18.1812 48.4809 18.1812 48.4969C18.1813 48.5129 18.1813 48.5289 18.1813 48.5449C18.1814 48.5609 18.1814 48.5768 18.1814 48.5928C18.1815 48.6088 18.1815 48.6248 18.1815 48.6408C18.1816 48.6568 18.1816 48.6729 18.1816 48.6889C18.1817 48.7049 18.1817 48.7209 18.1817 48.7369C18.1818 48.7529 18.1818 48.7689 18.1818 48.7849C18.1819 48.8009 18.1819 48.8169 18.1819 48.8329C18.182 48.849 18.182 48.865 18.182 48.881C18.1821 48.897 18.1821 48.913 18.1821 48.9291C18.1822 48.9451 18.1822 48.9611 18.1822 48.9771C18.1823 48.9932 18.1823 49.0092 18.1823 49.0252C18.1824 49.0412 18.1824 49.0573 18.1824 49.0733C18.1825 49.0893 18.1825 49.1054 18.1825 49.1214C18.1826 49.1374 18.1826 49.1535 18.1826 49.1695C18.1827 49.1856 18.1827 49.2016 18.1827 49.2176C18.1828 49.2337 18.1828 49.2497 18.1828 49.2658C18.1829 49.2818 18.1829 49.2979 18.1829 49.3139C18.183 49.33 18.183 49.346 18.183 49.3621C18.1831 49.3781 18.1831 49.3942 18.1831 49.4102C18.1832 49.4263 18.1832 49.4423 18.1832 49.4584C18.1833 49.4745 18.1833 49.4905 18.1833 49.5066C18.1834 49.5226 18.1834 49.5387 18.1834 49.5548C18.1835 49.5708 18.1835 49.5869 18.1835 49.603C18.1836 49.619 18.1836 49.6351 18.1836 49.6512C18.1837 49.6673 18.1837 49.6833 18.1837 49.6994C18.1838 49.7155 18.1838 49.7316 18.1838 49.7476C18.1839 49.7637 18.1839 49.7798 18.1839 49.7959C18.184 49.812 18.184 49.8281 18.184 49.8441C18.1841 49.8602 18.1841 49.8763 18.1841 49.8924C18.1842 49.9085 18.1842 49.9246 18.1842 49.9407C18.1843 49.9568 18.1843 49.9729 18.1843 49.989C18.1844 50.0051 18.1844 50.0212 18.1844 50.0373C18.1845 50.0534 18.1845 50.0695 18.1845 50.0856C18.1846 50.1017 18.1846 50.1178 18.1846 50.1339C18.1847 50.15 18.1847 50.1661 18.1847 50.1822C18.1848 50.1983 18.1848 50.2144 18.1848 50.2305C18.1849 50.2466 18.1849 50.2628 18.1849 50.2789C18.185 50.295 18.185 50.3111 18.185 50.3272C18.1851 50.3433 18.1851 50.3595 18.1851 50.3756C18.1852 50.3917 18.1852 50.4078 18.1852 50.424C18.1853 50.4401 18.1853 50.4562 18.1853 50.4723C18.1854 50.4885 18.1854 50.5046 18.1854 50.5207C18.1855 50.5369 18.1855 50.553 18.1855 50.5691C18.1856 50.5853 18.1856 50.6014 18.1856 50.6176C18.1857 50.6337 18.1857 50.6498 18.1857 50.666C18.1858 50.6821 18.1858 50.6983 18.1858 50.7144C18.1859 50.7306 18.1859 50.7467 18.1859 50.7629C18.186 50.779 18.186 50.7952 18.186 50.8113C18.1861 50.8275 18.1861 50.8436 18.1861 50.8598C18.1862 50.8759 18.1862 50.8921 18.1862 50.9083C18.1863 50.9244 18.1863 50.9406 18.1863 50.9568C18.1864 50.9729 18.1864 50.9891 18.1864 51.0052C18.1865 51.0214 18.1865 51.0376 18.1865 51.0538C18.1866 51.0699 18.1866 51.0861 18.1866 51.1023C18.1867 51.1184 18.1867 51.1346 18.1867 51.1508C18.1868 51.167 18.1868 51.1832 18.1868 51.1993C18.1869 51.2155 18.1869 51.2317 18.1869 51.2479C18.187 51.2641 18.187 51.2802 18.187 51.2964C18.1871 51.3126 18.1871 51.3288 18.1871 51.345C18.1872 51.3612 18.1872 51.3774 18.1872 51.3936C18.1873 51.4098 18.1873 51.426 18.1873 51.4422C18.1874 51.4584 18.1874 51.4746 18.1874 51.4908C18.1875 51.507 18.1875 51.5232 18.1875 51.5394C18.1876 51.5556 18.1876 51.5718 18.1876 51.588C18.1877 51.6042 18.1877 51.6204 18.1877 51.6366C18.1878 51.6528 18.1878 51.669 18.1878 51.6853C18.1879 51.7015 18.1879 51.7177 18.1879 51.7339C18.188 51.7501 18.188 51.7663 18.188 51.7826C18.1881 51.7988 18.1881 51.815 18.1881 51.8312C18.1882 51.8474 18.1882 51.8637 18.1882 51.8799C18.1883 51.8961 18.1883 51.9124 18.1883 51.9286C18.1884 51.9448 18.1884 51.9611 18.1884 51.9773C18.1885 51.9935 18.1885 52.0098 18.1885 52.026C18.1886 52.0422 18.1886 52.0585 18.1886 52.0747C18.1887 52.091 18.1887 52.1072 18.1887 52.1234C18.1888 52.1397 18.1888 52.1559 18.1888 52.1722C18.1889 52.1884 18.1889 52.2047 18.1889 52.2209C18.189 52.2372 18.189 52.2534 18.189 52.2697C18.1891 52.2859 18.1891 52.3022 18.1891 52.3185C18.1892 52.3347 18.1892 52.351 18.1892 52.3672C18.1893 52.3835 18.1893 52.3998 18.1893 52.416C18.1894 52.4323 18.1894 52.4486 18.1894 52.4648C18.1895 52.4811 18.1895 52.4974 18.1895 52.5136C18.1896 52.5299 18.1896 52.5462 18.1896 52.5625C18.1897 52.5787 18.1897 52.595 18.1897 52.6113C18.1898 52.6276 18.1898 52.6438 18.1898 52.6601C18.1899 52.6764 18.1899 52.6927 18.1899 52.709C18.19 52.7253 18.19 52.7415 18.19 52.7578C18.1901 52.7741 18.1901 52.7904 18.1901 52.8067C18.1902 52.823 18.1902 52.8393 18.1902 52.8556C18.1903 52.8719 18.1903 52.8882 18.1903 52.9045C18.1904 52.9208 18.1904 52.9371 18.1904 52.9534C18.1905 52.9697 18.1905 52.986 18.1905 53.0023C18.1906 53.0186 18.1906 53.0349 18.1906 53.0512C18.1907 53.0675 18.1907 53.0838 18.1907 53.1001C18.1908 53.1165 18.1908 53.1328 18.1908 53.1491C18.1909 53.1654 18.1909 53.1817 18.1909 53.198C18.191 53.2144 18.191 53.2307 18.191 53.247C18.1911 53.2633 18.1911 53.2796 18.1911 53.296C18.1912 53.3123 18.1912 53.3286 18.1912 53.3449C18.1913 53.3613 18.1913 53.3776 18.1913 53.3939C18.1914 53.4103 18.1914 53.4266 18.1914 53.4429C18.1915 53.4593 18.1915 53.4756 18.1915 53.492C18.1916 53.5083 18.1916 53.5246 18.1916 53.541C18.1917 53.5573 18.1917 53.5737 18.1917 53.59C18.1918 53.6064 18.1918 53.6227 18.1918 53.639C18.1919 53.6554 18.1919 53.6717 18.1919 53.6881C18.192 53.7045 18.192 53.7208 18.192 53.7372C18.1921 53.7535 18.1921 53.7699 18.1921 53.7862C18.1922 53.8026 18.1922 53.819 18.1923 53.8353C18.1923 53.8517 18.1923 53.868 18.1924 53.8844C18.1924 53.9008 18.1924 53.9171 18.1925 53.9335C18.1925 53.9499 18.1925 53.9663 18.1926 53.9826C18.1926 53.999 18.1926 54.0154 18.1927 54.0317C18.1927 54.0481 18.1927 54.0645 18.1928 54.0809C18.1928 54.0973 18.1928 54.1136 18.1929 54.13C18.1929 54.1464 18.1929 54.1628 18.193 54.1792C18.193 54.1956 18.193 54.212 18.1931 54.2283C18.1931 54.2447 18.1931 54.2611 18.1932 54.2775C18.1932 54.2939 18.1932 54.3103 18.1933 54.3267C18.1933 54.3431 18.1933 54.3595 18.1934 54.3759C18.1934 54.3923 18.1934 54.4087 18.1935 54.4251C18.1935 54.4415 18.1935 54.4579 18.1936 54.4743C18.1936 54.4907 18.1936 54.5071 18.1937 54.5235C18.1937 54.5399 18.1937 54.5564 18.1938 54.5728C18.1938 54.5892 18.1938 54.6056 18.1939 54.622C18.1939 54.6384 18.1939 54.6548 18.194 54.6713C18.194 54.6877 18.194 54.7041 18.1941 54.7205C18.1941 54.737 18.1941 54.7534 18.1942 54.7698C18.1942 54.7862 18.1942 54.8027 18.1943 54.8191C18.1943 54.8355 18.1943 54.852 18.1944 54.8684C18.1944 54.8848 18.1944 54.9013 18.1945 54.9177C18.1945 54.9341 18.1945 54.9506 18.1946 54.967C18.1946 54.9834 18.1947 54.9999 18.1947 55.0163C18.1947 55.0328 18.1948 55.0492 18.1948 55.0657C18.1948 55.0821 18.1949 55.0986 18.1949 55.115C18.1949 55.1315 18.195 55.1479 18.195 55.1644C18.195 55.1808 18.1951 55.1973 18.1951 55.2137C18.1951 55.2302 18.1952 55.2467 18.1952 55.2631C18.1952 55.2796 18.1953 55.296 18.1953 55.3125C18.1953 55.329 18.1954 55.3454 18.1954 55.3619C18.1954 55.3784 18.1955 55.3948 18.1955 55.4113C18.1955 55.4278 18.1956 55.4442 18.1956 55.4607C18.1956 55.4772 18.1957 55.4937 18.1957 55.5101C18.1957 55.5266 18.1958 55.5431 18.1958 55.5596C18.1958 55.5761 18.1959 55.5925 18.1959 55.609C18.1959 55.6255 18.196 55.642 18.196 55.6585C18.196 55.675 18.1961 55.6915 18.1961 55.708C18.1961 55.7244 18.1962 55.7409 18.1962 55.7574C18.1962 55.7739 18.1963 55.7904 18.1963 55.8069C18.1963 55.8234 18.1964 55.8399 18.1964 55.8564C18.1965 55.8729 18.1965 55.8894 18.1965 55.9059C18.1966 55.9224 18.1966 55.9389 18.1966 55.9554C18.1967 55.9719 18.1967 55.9885 18.1967 56.005C18.1968 56.0215 18.1968 56.038 18.1968 56.0545C18.1969 56.071 18.1969 56.0875 18.1969 56.1041C18.197 56.1206 18.197 56.1371 18.197 56.1536C18.1971 56.1701 18.1971 56.1867 18.1971 56.2032C18.1972 56.2197 18.1972 56.2362 18.1972 56.2528C18.1973 56.2693 18.1973 56.2858 18.1973 56.3023C18.1974 56.3189 18.1974 56.3354 18.1974 56.3519C18.1975 56.3685 18.1975 56.385 18.1975 56.4016C18.1976 56.4181 18.1976 56.4346 18.1976 56.4512C18.1977 56.4677 18.1977 56.4843 18.1977 56.5008C18.1978 56.5173 18.1978 56.5339 18.1978 56.5504C18.1979 56.567 18.1979 56.5835 18.1979 56.6001C18.198 56.6166 18.198 56.6332 18.1981 56.6497C18.1981 56.6663 18.1981 56.6829 18.1982 56.6994C18.1982 56.716 18.1982 56.7325 18.1983 56.7491C18.1983 56.7657 18.1983 56.7822 18.1984 56.7988C18.1984 56.8154 18.1984 56.8319 18.1985 56.8485C18.1985 56.8651 18.1985 56.8816 18.1986 56.8982C18.1986 56.9148 18.1986 56.9313 18.1987 56.9479C18.1987 56.9645 18.1987 56.9811 18.1988 56.9976C18.1988 57.0142 18.1988 57.0308 18.1989 57.0474C18.1989 57.064 18.1989 57.0806 18.199 57.0971C18.199 57.1137 18.199 57.1303 18.1991 57.1469C18.1991 57.1635 18.1991 57.1801 18.1992 57.1967C18.1992 57.2133 18.1992 57.2299 18.1993 57.2464C18.1993 57.263 18.1993 57.2796 18.1994 57.2962C18.1994 57.3128 18.1995 57.3294 18.1995 57.346C18.1995 57.3626 18.1996 57.3792 18.1996 57.3959C18.1996 57.4125 18.1997 57.4291 18.1997 57.4457C18.1997 57.4623 18.1998 57.4789 18.1998 57.4955C18.1998 57.5121 18.1999 57.5287 18.1999 57.5453C18.1999 57.562 18.2 57.5786 18.2 57.5952C18.2 57.6118 18.2001 57.6284 18.2001 57.6451C18.2001 57.6617 18.2002 57.6783 18.2002 57.6949C18.2002 57.7116 18.2003 57.7282 18.2003 57.7448C18.2003 57.7614 18.2004 57.7781 18.2004 57.7947C18.2004 57.8113 18.2005 57.828 18.2005 57.8446C18.2005 57.8612 18.2006 57.8779 18.2006 57.8945C18.2007 57.9112 18.2007 57.9278 18.2007 57.9444C18.2008 57.9611 18.2008 57.9777 18.2008 57.9944C18.2009 58.011 18.2009 58.0277 18.2009 58.0443C18.201 58.061 18.201 58.0776 18.201 58.0943C18.2011 58.1109 18.2011 58.1276 18.2011 58.1442C18.2012 58.1609 18.2012 58.1775 18.2012 58.1942C18.2013 58.2109 18.2013 58.2275 18.2013 58.2442C18.2014 58.2608 18.2014 58.2775 18.2014 58.2942C18.2015 58.3108 18.2015 58.3275 18.2015 58.3442C18.2016 58.3609 18.2016 58.3775 18.2016 58.3942C18.2017 58.4109 18.2017 58.4275 18.2017 58.4442C18.2018 58.4609 18.2018 58.4776 18.2019 58.4943C18.2019 58.5109 18.2019 58.5276 18.202 58.5443C18.202 58.561 18.202 58.5777 18.2021 58.5944C18.2021 58.611 18.2021 58.6277 18.2022 58.6444L20.2022 58.6403C20.2021 58.6236 20.2021 58.6069 20.2021 58.5902C20.202 58.5735 20.202 58.5569 20.202 58.5402C20.2019 58.5235 20.2019 58.5068 20.2018 58.4901C20.2018 58.4735 20.2018 58.4568 20.2017 58.4401C20.2017 58.4234 20.2017 58.4067 20.2016 58.3901C20.2016 58.3734 20.2016 58.3567 20.2015 58.3401C20.2015 58.3234 20.2015 58.3067 20.2014 58.2901C20.2014 58.2734 20.2014 58.2567 20.2013 58.2401C20.2013 58.2234 20.2013 58.2067 20.2012 58.1901C20.2012 58.1734 20.2012 58.1568 20.2011 58.1401C20.2011 58.1235 20.2011 58.1068 20.201 58.0901C20.201 58.0735 20.201 58.0568 20.2009 58.0402C20.2009 58.0235 20.2009 58.0069 20.2008 57.9903C20.2008 57.9736 20.2007 57.957 20.2007 57.9403C20.2007 57.9237 20.2006 57.907 20.2006 57.8904C20.2006 57.8738 20.2005 57.8571 20.2005 57.8405C20.2005 57.8238 20.2004 57.8072 20.2004 57.7906C20.2004 57.7739 20.2003 57.7573 20.2003 57.7407C20.2003 57.7241 20.2002 57.7074 20.2002 57.6908C20.2002 57.6742 20.2001 57.6576 20.2001 57.6409C20.2001 57.6243 20.2 57.6077 20.2 57.5911C20.2 57.5745 20.1999 57.5578 20.1999 57.5412C20.1999 57.5246 20.1998 57.508 20.1998 57.4914C20.1998 57.4748 20.1997 57.4582 20.1997 57.4416C20.1997 57.4249 20.1996 57.4083 20.1996 57.3917C20.1996 57.3751 20.1995 57.3585 20.1995 57.3419C20.1994 57.3253 20.1994 57.3087 20.1994 57.2921C20.1993 57.2755 20.1993 57.2589 20.1993 57.2423C20.1992 57.2257 20.1992 57.2091 20.1992 57.1925C20.1991 57.176 20.1991 57.1594 20.1991 57.1428C20.199 57.1262 20.199 57.1096 20.199 57.093C20.1989 57.0764 20.1989 57.0598 20.1989 57.0433C20.1988 57.0267 20.1988 57.0101 20.1988 56.9935C20.1987 56.9769 20.1987 56.9604 20.1987 56.9438C20.1986 56.9272 20.1986 56.9106 20.1986 56.8941C20.1985 56.8775 20.1985 56.8609 20.1985 56.8444C20.1984 56.8278 20.1984 56.8112 20.1984 56.7947C20.1983 56.7781 20.1983 56.7615 20.1983 56.745C20.1982 56.7284 20.1982 56.7119 20.1981 56.6953C20.1981 56.6787 20.1981 56.6622 20.198 56.6456C20.198 56.6291 20.198 56.6125 20.1979 56.596C20.1979 56.5794 20.1979 56.5629 20.1978 56.5463C20.1978 56.5298 20.1978 56.5132 20.1977 56.4967C20.1977 56.4801 20.1977 56.4636 20.1976 56.4471C20.1976 56.4305 20.1976 56.414 20.1975 56.3974C20.1975 56.3809 20.1975 56.3644 20.1974 56.3478C20.1974 56.3313 20.1974 56.3148 20.1973 56.2982C20.1973 56.2817 20.1973 56.2652 20.1972 56.2486C20.1972 56.2321 20.1972 56.2156 20.1971 56.1991C20.1971 56.1825 20.1971 56.166 20.197 56.1495C20.197 56.133 20.197 56.1164 20.1969 56.0999C20.1969 56.0834 20.1969 56.0669 20.1968 56.0504C20.1968 56.0339 20.1968 56.0174 20.1967 56.0008C20.1967 55.9843 20.1966 55.9678 20.1966 55.9513C20.1966 55.9348 20.1965 55.9183 20.1965 55.9018C20.1965 55.8853 20.1964 55.8688 20.1964 55.8523C20.1964 55.8358 20.1963 55.8193 20.1963 55.8028C20.1963 55.7863 20.1962 55.7698 20.1962 55.7533C20.1962 55.7368 20.1961 55.7203 20.1961 55.7038C20.1961 55.6873 20.196 55.6709 20.196 55.6544C20.196 55.6379 20.1959 55.6214 20.1959 55.6049C20.1959 55.5884 20.1958 55.5719 20.1958 55.5555C20.1958 55.539 20.1957 55.5225 20.1957 55.506C20.1957 55.4895 20.1956 55.4731 20.1956 55.4566C20.1956 55.4401 20.1955 55.4237 20.1955 55.4072C20.1955 55.3907 20.1954 55.3742 20.1954 55.3578C20.1954 55.3413 20.1953 55.3248 20.1953 55.3084C20.1953 55.2919 20.1952 55.2755 20.1952 55.259C20.1952 55.2425 20.1951 55.2261 20.1951 55.2096C20.1951 55.1932 20.195 55.1767 20.195 55.1602C20.195 55.1438 20.1949 55.1273 20.1949 55.1109C20.1948 55.0944 20.1948 55.078 20.1948 55.0615C20.1947 55.0451 20.1947 55.0287 20.1947 55.0122C20.1946 54.9958 20.1946 54.9793 20.1946 54.9629C20.1945 54.9464 20.1945 54.93 20.1945 54.9136C20.1944 54.8971 20.1944 54.8807 20.1944 54.8643C20.1943 54.8478 20.1943 54.8314 20.1943 54.815C20.1942 54.7985 20.1942 54.7821 20.1942 54.7657C20.1941 54.7493 20.1941 54.7328 20.1941 54.7164C20.194 54.7 20.194 54.6836 20.194 54.6671C20.1939 54.6507 20.1939 54.6343 20.1939 54.6179C20.1938 54.6015 20.1938 54.5851 20.1938 54.5686C20.1937 54.5522 20.1937 54.5358 20.1937 54.5194C20.1936 54.503 20.1936 54.4866 20.1936 54.4702C20.1935 54.4538 20.1935 54.4374 20.1935 54.421C20.1934 54.4046 20.1934 54.3882 20.1934 54.3718C20.1933 54.3554 20.1933 54.339 20.1933 54.3226C20.1932 54.3062 20.1932 54.2898 20.1932 54.2734C20.1931 54.257 20.1931 54.2406 20.1931 54.2242C20.193 54.2078 20.193 54.1914 20.193 54.1751C20.1929 54.1587 20.1929 54.1423 20.1929 54.1259C20.1928 54.1095 20.1928 54.0931 20.1928 54.0768C20.1927 54.0604 20.1927 54.044 20.1927 54.0276C20.1926 54.0113 20.1926 53.9949 20.1925 53.9785C20.1925 53.9621 20.1925 53.9458 20.1924 53.9294C20.1924 53.913 20.1924 53.8967 20.1923 53.8803C20.1923 53.8639 20.1923 53.8476 20.1922 53.8312C20.1922 53.8148 20.1922 53.7985 20.1921 53.7821C20.1921 53.7658 20.1921 53.7494 20.192 53.733C20.192 53.7167 20.192 53.7003 20.1919 53.684C20.1919 53.6676 20.1919 53.6513 20.1918 53.6349C20.1918 53.6186 20.1918 53.6022 20.1917 53.5859C20.1917 53.5695 20.1917 53.5532 20.1916 53.5369C20.1916 53.5205 20.1916 53.5042 20.1915 53.4878C20.1915 53.4715 20.1915 53.4552 20.1914 53.4388C20.1914 53.4225 20.1914 53.4061 20.1913 53.3898C20.1913 53.3735 20.1913 53.3572 20.1912 53.3408C20.1912 53.3245 20.1912 53.3082 20.1911 53.2918C20.1911 53.2755 20.1911 53.2592 20.191 53.2429C20.191 53.2265 20.191 53.2102 20.1909 53.1939C20.1909 53.1776 20.1909 53.1613 20.1908 53.145C20.1908 53.1286 20.1908 53.1123 20.1907 53.096C20.1907 53.0797 20.1907 53.0634 20.1906 53.0471C20.1906 53.0308 20.1906 53.0145 20.1905 52.9982C20.1905 52.9819 20.1905 52.9656 20.1904 52.9493C20.1904 52.933 20.1904 52.9167 20.1903 52.9004C20.1903 52.8841 20.1903 52.8678 20.1902 52.8515C20.1902 52.8352 20.1902 52.8189 20.1901 52.8026C20.1901 52.7863 20.1901 52.77 20.19 52.7537C20.19 52.7374 20.19 52.7211 20.1899 52.7049C20.1899 52.6886 20.1899 52.6723 20.1898 52.656C20.1898 52.6397 20.1898 52.6234 20.1897 52.6072C20.1897 52.5909 20.1897 52.5746 20.1896 52.5583C20.1896 52.5421 20.1896 52.5258 20.1895 52.5095C20.1895 52.4932 20.1895 52.477 20.1894 52.4607C20.1894 52.4444 20.1894 52.4282 20.1893 52.4119C20.1893 52.3956 20.1893 52.3794 20.1892 52.3631C20.1892 52.3469 20.1892 52.3306 20.1891 52.3143C20.1891 52.2981 20.1891 52.2818 20.189 52.2656C20.189 52.2493 20.189 52.2331 20.1889 52.2168C20.1889 52.2006 20.1889 52.1843 20.1888 52.1681C20.1888 52.1518 20.1888 52.1356 20.1887 52.1193C20.1887 52.1031 20.1887 52.0868 20.1886 52.0706C20.1886 52.0544 20.1886 52.0381 20.1885 52.0219C20.1885 52.0056 20.1884 51.9894 20.1884 51.9732C20.1884 51.9569 20.1883 51.9407 20.1883 51.9245C20.1883 51.9082 20.1882 51.892 20.1882 51.8758C20.1882 51.8596 20.1881 51.8433 20.1881 51.8271C20.1881 51.8109 20.188 51.7947 20.188 51.7784C20.188 51.7622 20.1879 51.746 20.1879 51.7298C20.1879 51.7136 20.1878 51.6973 20.1878 51.6811C20.1878 51.6649 20.1877 51.6487 20.1877 51.6325C20.1877 51.6163 20.1876 51.6001 20.1876 51.5839C20.1876 51.5677 20.1875 51.5515 20.1875 51.5352C20.1875 51.519 20.1874 51.5028 20.1874 51.4866C20.1874 51.4704 20.1873 51.4542 20.1873 51.438C20.1873 51.4218 20.1872 51.4057 20.1872 51.3895C20.1872 51.3733 20.1871 51.3571 20.1871 51.3409C20.1871 51.3247 20.187 51.3085 20.187 51.2923C20.187 51.2761 20.1869 51.2599 20.1869 51.2438C20.1869 51.2276 20.1868 51.2114 20.1868 51.1952C20.1868 51.179 20.1867 51.1629 20.1867 51.1467C20.1867 51.1305 20.1866 51.1143 20.1866 51.0981C20.1866 51.082 20.1865 51.0658 20.1865 51.0496C20.1865 51.0335 20.1864 51.0173 20.1864 51.0011C20.1864 50.985 20.1863 50.9688 20.1863 50.9526C20.1863 50.9365 20.1862 50.9203 20.1862 50.9041C20.1862 50.888 20.1861 50.8718 20.1861 50.8557C20.1861 50.8395 20.186 50.8234 20.186 50.8072C20.186 50.791 20.1859 50.7749 20.1859 50.7587C20.1859 50.7426 20.1858 50.7264 20.1858 50.7103C20.1858 50.6942 20.1857 50.678 20.1857 50.6619C20.1857 50.6457 20.1856 50.6296 20.1856 50.6134C20.1856 50.5973 20.1855 50.5812 20.1855 50.565C20.1855 50.5489 20.1854 50.5328 20.1854 50.5166C20.1854 50.5005 20.1853 50.4844 20.1853 50.4682C20.1853 50.4521 20.1852 50.436 20.1852 50.4198C20.1852 50.4037 20.1851 50.3876 20.1851 50.3715C20.1851 50.3553 20.185 50.3392 20.185 50.3231C20.185 50.307 20.1849 50.2909 20.1849 50.2747C20.1849 50.2586 20.1848 50.2425 20.1848 50.2264C20.1848 50.2103 20.1847 50.1942 20.1847 50.1781C20.1847 50.162 20.1846 50.1459 20.1846 50.1297C20.1846 50.1136 20.1846 50.0975 20.1845 50.0814C20.1845 50.0653 20.1845 50.0492 20.1844 50.0331C20.1844 50.017 20.1844 50.0009 20.1843 49.9848C20.1843 49.9687 20.1843 49.9526 20.1842 49.9366C20.1842 49.9205 20.1842 49.9044 20.1841 49.8883C20.1841 49.8722 20.1841 49.8561 20.184 49.84C20.184 49.8239 20.184 49.8078 20.1839 49.7918C20.1839 49.7757 20.1839 49.7596 20.1838 49.7435C20.1838 49.7274 20.1838 49.7114 20.1837 49.6953C20.1837 49.6792 20.1837 49.6631 20.1836 49.6471C20.1836 49.631 20.1836 49.6149 20.1835 49.5989C20.1835 49.5828 20.1835 49.5667 20.1834 49.5507C20.1834 49.5346 20.1834 49.5185 20.1833 49.5025C20.1833 49.4864 20.1833 49.4703 20.1832 49.4543C20.1832 49.4382 20.1832 49.4222 20.1831 49.4061C20.1831 49.39 20.1831 49.374 20.183 49.3579C20.183 49.3419 20.183 49.3258 20.1829 49.3098C20.1829 49.2937 20.1829 49.2777 20.1828 49.2616C20.1828 49.2456 20.1828 49.2296 20.1827 49.2135C20.1827 49.1975 20.1827 49.1814 20.1826 49.1654C20.1826 49.1494 20.1826 49.1333 20.1825 49.1173C20.1825 49.1012 20.1825 49.0852 20.1824 49.0692C20.1824 49.0531 20.1824 49.0371 20.1823 49.0211C20.1823 49.0051 20.1823 48.989 20.1822 48.973C20.1822 48.957 20.1822 48.941 20.1821 48.9249C20.1821 48.9089 20.1821 48.8929 20.182 48.8769C20.182 48.8609 20.182 48.8448 20.1819 48.8288C20.1819 48.8128 20.1819 48.7968 20.1818 48.7808C20.1818 48.7648 20.1818 48.7488 20.1817 48.7328C20.1817 48.7167 20.1817 48.7007 20.1816 48.6847C20.1816 48.6687 20.1816 48.6527 20.1815 48.6367C20.1815 48.6207 20.1815 48.6047 20.1814 48.5887C20.1814 48.5727 20.1814 48.5567 20.1813 48.5407C20.1813 48.5247 20.1813 48.5087 20.1812 48.4928C20.1812 48.4768 20.1812 48.4608 20.1811 48.4448C20.1811 48.4288 20.1811 48.4128 20.181 48.3968C20.181 48.3808 20.181 48.3649 20.1809 48.3489C20.1809 48.3329 20.1809 48.3169 20.1808 48.3009C20.1808 48.285 20.1808 48.269 20.1807 48.253C20.1807 48.237 20.1807 48.2211 20.1806 48.2051C20.1806 48.1891 20.1806 48.1731 20.1806 48.1572C20.1805 48.1412 20.1805 48.1252 20.1805 48.1093C20.1804 48.0933 20.1804 48.0774 20.1804 48.0614C20.1803 48.0454 20.1803 48.0295 20.1803 48.0135C20.1802 47.9976 20.1802 47.9816 20.1802 47.9656C20.1801 47.9497 20.1801 47.9337 20.1801 47.9178C20.18 47.9018 20.18 47.8859 20.18 47.8699C20.1799 47.854 20.1799 47.838 20.1799 47.8221C20.1798 47.8062 20.1798 47.7902 20.1798 47.7743C20.1797 47.7583 20.1797 47.7424 20.1797 47.7265C20.1796 47.7105 20.1796 47.6946 20.1796 47.6786C20.1795 47.6627 20.1795 47.6468 20.1795 47.6308C20.1794 47.6149 20.1794 47.599 20.1794 47.5831C20.1793 47.5671 20.1793 47.5512 20.1793 47.5353C20.1792 47.5194 20.1792 47.5034 20.1792 47.4875C20.1791 47.4716 20.1791 47.4557 20.1791 47.4398C20.179 47.4238 20.179 47.4079 20.179 47.392C20.1789 47.3761 20.1789 47.3602 20.1789 47.3443C20.1788 47.3284 20.1788 47.3125 20.1788 47.2965C20.1787 47.2806 20.1787 47.2647 20.1787 47.2488C20.1786 47.2329 20.1786 47.217 20.1786 47.2011C20.1785 47.1852 20.1785 47.1693 20.1785 47.1534C20.1784 47.1375 20.1784 47.1216 20.1784 47.1057C20.1784 47.0898 20.1783 47.074 20.1783 47.0581C20.1783 47.0422 20.1782 47.0263 20.1782 47.0104C20.1782 46.9945 20.1781 46.9786 20.1781 46.9627C20.1781 46.9469 20.178 46.931 20.178 46.9151C20.178 46.8992 20.1779 46.8833 20.1779 46.8675C20.1779 46.8516 20.1778 46.8357 20.1778 46.8198C20.1778 46.804 20.1777 46.7881 20.1777 46.7722C20.1777 46.7563 20.1776 46.7405 20.1776 46.7246C20.1776 46.7087 20.1775 46.6929 20.1775 46.677C20.1775 46.6612 20.1774 46.6453 20.1774 46.6294C20.1774 46.6136 20.1773 46.5977 20.1773 46.5819C20.1773 46.566 20.1772 46.5501 20.1772 46.5343C20.1772 46.5184 20.1771 46.5026 20.1771 46.4867C20.1771 46.4709 20.177 46.455 20.177 46.4392C20.177 46.4233 20.1769 46.4075 20.1769 46.3917C20.1769 46.3758 20.1768 46.36 20.1768 46.3441C20.1768 46.3283 20.1767 46.3125 20.1767 46.2966C20.1767 46.2808 20.1767 46.2649 20.1766 46.2491C20.1766 46.2333 20.1766 46.2174 20.1765 46.2016C20.1765 46.1858 20.1765 46.17 20.1764 46.1541C20.1764 46.1383 20.1764 46.1225 20.1763 46.1067C20.1763 46.0908 20.1763 46.075 20.1762 46.0592C20.1762 46.0434 20.1762 46.0276 20.1761 46.0117C20.1761 45.9959 20.1761 45.9801 20.176 45.9643C20.176 45.9485 20.176 45.9327 20.1759 45.9169C20.1759 45.9011 20.1759 45.8852 20.1758 45.8694C20.1758 45.8536 20.1758 45.8378 20.1757 45.822C20.1757 45.8062 20.1757 45.7904 20.1756 45.7746C20.1756 45.7588 20.1756 45.743 20.1755 45.7272C20.1755 45.7114 20.1755 45.6956 20.1754 45.6798C20.1754 45.6641 20.1754 45.6483 20.1753 45.6325C20.1753 45.6167 20.1753 45.6009 20.1752 45.5851C20.1752 45.5693 20.1752 45.5535 20.1752 45.5378C20.1751 45.522 20.1751 45.5062 20.1751 45.4904C20.175 45.4746 20.175 45.4589 20.175 45.4431C20.1749 45.4273 20.1749 45.4115 20.1749 45.3958C20.1748 45.38 20.1748 45.3642 20.1748 45.3484C20.1747 45.3327 20.1747 45.3169 20.1747 45.3011C20.1746 45.2854 20.1746 45.2696 20.1746 45.2539C20.1745 45.2381 20.1745 45.2223 20.1745 45.2066C20.1744 45.1908 20.1744 45.1751 20.1744 45.1593C20.1743 45.1435 20.1743 45.1278 20.1743 45.112C20.1742 45.0963 20.1742 45.0805 20.1742 45.0648C20.1741 45.049 20.1741 45.0333 20.1741 45.0175C20.174 45.0018 20.174 44.9861 20.174 44.9703C20.1739 44.9546 20.1739 44.9388 20.1739 44.9231C20.1739 44.9074 20.1738 44.8916 20.1738 44.8759C20.1738 44.8601 20.1737 44.8444 20.1737 44.8287C20.1737 44.8129 20.1736 44.7972 20.1736 44.7815C20.1736 44.7658 20.1735 44.75 20.1735 44.7343C20.1735 44.7186 20.1734 44.7029 20.1734 44.6871C20.1734 44.6714 20.1733 44.6557 20.1733 44.64C20.1733 44.6243 20.1732 44.6085 20.1732 44.5928C20.1732 44.5771 20.1731 44.5614 20.1731 44.5457C20.1731 44.53 20.173 44.5143 20.173 44.4986C20.173 44.4828 20.1729 44.4671 20.1729 44.4514C20.1729 44.4357 20.1728 44.42 20.1728 44.4043C20.1728 44.3886 20.1728 44.3729 20.1727 44.3572C20.1727 44.3415 20.1727 44.3258 20.1726 44.3101C20.1726 44.2944 20.1726 44.2787 20.1725 44.2631C20.1725 44.2474 20.1725 44.2317 20.1724 44.216C20.1724 44.2003 20.1724 44.1846 20.1723 44.1689C20.1723 44.1532 20.1723 44.1376 20.1722 44.1219C20.1722 44.1062 20.1722 44.0905 20.1721 44.0748C20.1721 44.0592 20.1721 44.0435 20.172 44.0278C20.172 44.0121 20.172 43.9965 20.1719 43.9808C20.1719 43.9651 20.1719 43.9495 20.1718 43.9338C20.1718 43.9181 20.1718 43.9024 20.1717 43.8868C20.1717 43.8711 20.1717 43.8555 20.1717 43.8398C20.1716 43.8241 20.1716 43.8085 20.1716 43.7928C20.1715 43.7772 20.1715 43.7615 20.1715 43.7458C20.1714 43.7302 20.1714 43.7145 20.1714 43.6989C20.1713 43.6832 20.1713 43.6676 20.1713 43.6519C20.1712 43.6363 20.1712 43.6206 20.1712 43.605C20.1711 43.5894 20.1711 43.5737 20.1711 43.5581C20.171 43.5424 20.171 43.5268 20.171 43.5112C20.1709 43.4955 20.1709 43.4799 20.1709 43.4643C20.1708 43.4486 20.1708 43.433 20.1708 43.4174C20.1707 43.4017 20.1707 43.3861 20.1707 43.3705C20.1707 43.3548 20.1706 43.3392 20.1706 43.3236C20.1706 43.308 20.1705 43.2923 20.1705 43.2767C20.1705 43.2611 20.1704 43.2455 20.1704 43.2299C20.1704 43.2142 20.1703 43.1986 20.1703 43.183C20.1703 43.1674 20.1702 43.1518 20.1702 43.1362C20.1702 43.1206 20.1701 43.105 20.1701 43.0894C20.1701 43.0737 20.17 43.0581 20.17 43.0425C20.17 43.0269 20.1699 43.0113 20.1699 42.9957C20.1699 42.9801 20.1698 42.9645 20.1698 42.9489C20.1698 42.9333 20.1698 42.9177 20.1697 42.9021C20.1697 42.8866 20.1697 42.871 20.1696 42.8554C20.1696 42.8398 20.1696 42.8242 20.1695 42.8086C20.1695 42.793 20.1695 42.7774 20.1694 42.7619C20.1694 42.7463 20.1694 42.7307 20.1693 42.7151C20.1693 42.6995 20.1693 42.6839 20.1692 42.6684C20.1692 42.6528 20.1692 42.6372 20.1691 42.6216C20.1691 42.6061 20.1691 42.5905 20.169 42.5749C20.169 42.5594 20.169 42.5438 20.1689 42.5282C20.1689 42.5127 20.1689 42.4971 20.1689 42.4815C20.1688 42.466 20.1688 42.4504 20.1688 42.4348C20.1687 42.4193 20.1687 42.4037 20.1687 42.3882C20.1686 42.3726 20.1686 42.3571 20.1686 42.3415C20.1685 42.326 20.1685 42.3104 20.1685 42.2948C20.1684 42.2793 20.1684 42.2638 20.1684 42.2482C20.1683 42.2327 20.1683 42.2171 20.1683 42.2016C20.1682 42.186 20.1682 42.1705 20.1682 42.1549C20.1681 42.1394 20.1681 42.1239 20.1681 42.1083C20.1681 42.0928 20.168 42.0773 20.168 42.0617C20.168 42.0462 20.1679 42.0307 20.1679 42.0151C20.1679 41.9996 20.1678 41.9841 20.1678 41.9685C20.1678 41.953 20.1677 41.9375 20.1677 41.922C20.1677 41.9065 20.1676 41.8909 20.1676 41.8754C20.1676 41.8599 20.1675 41.8444 20.1675 41.8289C20.1675 41.8133 20.1674 41.7978 20.1674 41.7823C20.1674 41.7668 20.1673 41.7513 20.1673 41.7358C20.1673 41.7203 20.1673 41.7048 20.1672 41.6893C20.1672 41.6738 20.1672 41.6582 20.1671 41.6427C20.1671 41.6272 20.1671 41.6117 20.167 41.5962C20.167 41.5807 20.167 41.5652 20.1669 41.5497C20.1669 41.5343 20.1669 41.5188 20.1668 41.5033C20.1668 41.4878 20.1668 41.4723 20.1667 41.4568C20.1667 41.4413 20.1667 41.4258 20.1666 41.4103C20.1666 41.3948 20.1666 41.3794 20.1665 41.3639C20.1665 41.3484 20.1665 41.3329 20.1665 41.3174C20.1664 41.302 20.1664 41.2865 20.1664 41.271C20.1663 41.2555 20.1663 41.2401 20.1663 41.2246C20.1662 41.2091 20.1662 41.1936 20.1662 41.1782C20.1661 41.1627 20.1661 41.1472 20.1661 41.1318C20.166 41.1163 20.166 41.1008 20.166 41.0854C20.1659 41.0699 20.1659 41.0545 20.1659 41.039C20.1658 41.0235 20.1658 41.0081 20.1658 40.9926C20.1658 40.9772 20.1657 40.9617 20.1657 40.9463C20.1657 40.9308 20.1656 40.9154 20.1656 40.8999C20.1656 40.8845 20.1655 40.869 20.1655 40.8536C20.1655 40.8381 20.1654 40.8227 20.1654 40.8072C20.1654 40.7918 20.1653 40.7764 20.1653 40.7609C20.1653 40.7455 20.1652 40.73 20.1652 40.7146C20.1652 40.6992 20.1651 40.6837 20.1651 40.6683C20.1651 40.6529 20.1651 40.6374 20.165 40.622C20.165 40.6066 20.165 40.5912 20.1649 40.5757C20.1649 40.5603 20.1649 40.5449 20.1648 40.5295C20.1648 40.514 20.1648 40.4986 20.1647 40.4832C20.1647 40.4678 20.1647 40.4524 20.1646 40.437C20.1646 40.4215 20.1646 40.4061 20.1645 40.3907C20.1645 40.3753 20.1645 40.3599 20.1644 40.3445C20.1644 40.3291 20.1644 40.3137 20.1644 40.2983C20.1643 40.2829 20.1643 40.2675 20.1643 40.2521C20.1642 40.2367 20.1642 40.2213 20.1642 40.2059C20.1641 40.1905 20.1641 40.1751 20.1641 40.1597C20.164 40.1443 20.164 40.1289 20.164 40.1135C20.1639 40.0981 20.1639 40.0827 20.1639 40.0673C20.1638 40.0519 20.1638 40.0365 20.1638 40.0212C20.1637 40.0058 20.1637 39.9904 20.1637 39.975C20.1637 39.9596 20.1636 39.9443 20.1636 39.9289C20.1636 39.9135 20.1635 39.8981 20.1635 39.8827C20.1635 39.8674 20.1634 39.852 20.1634 39.8366C20.1634 39.8213 20.1633 39.8059 20.1633 39.7905C20.1633 39.7752 20.1632 39.7598 20.1632 39.7444C20.1632 39.7291 20.1631 39.7137 20.1631 39.6983C20.1631 39.683 20.1631 39.6676 20.163 39.6523C20.163 39.6369 20.163 39.6215 20.1629 39.6062C20.1629 39.5908 20.1629 39.5755 20.1628 39.5601C20.1628 39.5448 20.1628 39.5294 20.1627 39.5141C20.1627 39.4987 20.1627 39.4834 20.1626 39.468C20.1626 39.4527 20.1626 39.4374 20.1625 39.422C20.1625 39.4067 20.1625 39.3913 20.1625 39.376C20.1624 39.3607 20.1624 39.3453 20.1624 39.33C20.1623 39.3147 20.1623 39.2993 20.1623 39.284C20.1622 39.2687 20.1622 39.2533 20.1622 39.238C20.1621 39.2227 20.1621 39.2074 20.1621 39.192C20.162 39.1767 20.162 39.1614 20.162 39.1461C20.1619 39.1307 20.1619 39.1154 20.1619 39.1001C20.1619 39.0848 20.1618 39.0695 20.1618 39.0542C20.1618 39.0388 20.1617 39.0235 20.1617 39.0082C20.1617 38.9929 20.1616 38.9776 20.1616 38.9623C20.1616 38.947 20.1615 38.9317 20.1615 38.9164C20.1615 38.9011 20.1614 38.8858 20.1614 38.8705C20.1614 38.8552 20.1613 38.8399 20.1613 38.8246C20.1613 38.8093 20.1613 38.794 20.1612 38.7787C20.1612 38.7634 20.1612 38.7481 20.1611 38.7328C20.1611 38.7175 20.1611 38.7022 20.161 38.687C20.161 38.6717 20.161 38.6564 20.1609 38.6411C20.1609 38.6258 20.1609 38.6105 20.1608 38.5953C20.1608 38.58 20.1608 38.5647 20.1607 38.5494C20.1607 38.5341 20.1607 38.5189 20.1607 38.5036C20.1606 38.4883 20.1606 38.473 20.1606 38.4578C20.1605 38.4425 20.1605 38.4272 20.1605 38.412C20.1604 38.3967 20.1604 38.3814 20.1604 38.3662C20.1603 38.3509 20.1603 38.3357 20.1603 38.3204C20.1602 38.3051 20.1602 38.2899 20.1602 38.2746C20.1601 38.2594 20.1601 38.2441 20.1601 38.2289C20.1601 38.2136 20.16 38.1983 20.16 38.1831C20.16 38.1678 20.1599 38.1526 20.1599 38.1374C20.1599 38.1221 20.1598 38.1069 20.1598 38.0916C20.1598 38.0764 20.1597 38.0611 20.1597 38.0459C20.1597 38.0307 20.1596 38.0154 20.1596 38.0002C20.1596 37.9849 20.1596 37.9697 20.1595 37.9545C20.1595 37.9392 20.1595 37.924 20.1594 37.9088C20.1594 37.8936 20.1594 37.8783 20.1593 37.8631C20.1593 37.8479 20.1593 37.8326 20.1592 37.8174C20.1592 37.8022 20.1592 37.787 20.1591 37.7718C20.1591 37.7565 20.1591 37.7413 20.1591 37.7261C20.159 37.7109 20.159 37.6957 20.159 37.6805C20.1589 37.6653 20.1589 37.65 20.1589 37.6348C20.1588 37.6196 20.1588 37.6044 20.1588 37.5892C20.1587 37.574 20.1587 37.5588 20.1587 37.5436C20.1586 37.5284 20.1586 37.5132 20.1586 37.498C20.1585 37.4828 20.1585 37.4676 20.1585 37.4524C20.1585 37.4372 20.1584 37.422 20.1584 37.4068C20.1584 37.3916 20.1583 37.3764 20.1583 37.3612C20.1583 37.3461 20.1582 37.3309 20.1582 37.3157C20.1582 37.3005 20.1581 37.2853 20.1581 37.2701C20.1581 37.255 20.158 37.2398 20.158 37.2246C20.158 37.2094 20.158 37.1942 20.1579 37.1791C20.1579 37.1639 20.1579 37.1487 20.1578 37.1335C20.1578 37.1184 20.1578 37.1032 20.1577 37.088C20.1577 37.0729 20.1577 37.0577 20.1576 37.0425C20.1576 37.0274 20.1576 37.0122 20.1575 36.997C20.1575 36.9819 20.1575 36.9667 20.1575 36.9516C20.1574 36.9364 20.1574 36.9212 20.1574 36.9061C20.1573 36.8909 20.1573 36.8758 20.1573 36.8606C20.1572 36.8455 20.1572 36.8303 20.1572 36.8152C20.1571 36.8 20.1571 36.7849 20.1571 36.7697C20.157 36.7546 20.157 36.7394 20.157 36.7243C20.157 36.7092 20.1569 36.694 20.1569 36.6789C20.1569 36.6637 20.1568 36.6486 20.1568 36.6335C20.1568 36.6183 20.1567 36.6032 20.1567 36.5881C20.1567 36.5729 20.1566 36.5578 20.1566 36.5427C20.1566 36.5275 20.1565 36.5124 20.1565 36.4973C20.1565 36.4822 20.1565 36.467 20.1564 36.4519C20.1564 36.4368 20.1564 36.4217 20.1563 36.4066C20.1563 36.3915 20.1563 36.3763 20.1562 36.3612C20.1562 36.3461 20.1562 36.331 20.1561 36.3159C20.1561 36.3008 20.1561 36.2857 20.1561 36.2705C20.156 36.2554 20.156 36.2403 20.156 36.2252C20.1559 36.2101 20.1559 36.195 20.1559 36.1799C20.1558 36.1648 20.1558 36.1497 20.1558 36.1346C20.1557 36.1195 20.1557 36.1044 20.1557 36.0893C20.1556 36.0742 20.1556 36.0591 20.1556 36.0441C20.1556 36.029 20.1555 36.0139 20.1555 35.9988C20.1555 35.9837 20.1554 35.9686 20.1554 35.9535C20.1554 35.9384 20.1553 35.9234 20.1553 35.9083C20.1553 35.8932 20.1552 35.8781 20.1552 35.863C20.1552 35.848 20.1551 35.8329 20.1551 35.8178C20.1551 35.8027 20.1551 35.7877 20.155 35.7726C20.155 35.7575 20.155 35.7425 20.1549 35.7274C20.1549 35.7123 20.1549 35.6973 20.1548 35.6822C20.1548 35.6671 20.1548 35.6521 20.1547 35.637C20.1547 35.6219 20.1547 35.6069 20.1547 35.5918C20.1546 35.5768 20.1546 35.5617 20.1546 35.5467C20.1545 35.5316 20.1545 35.5165 20.1545 35.5015C20.1544 35.4864 20.1544 35.4714 20.1544 35.4563C20.1543 35.4413 20.1543 35.4263 20.1543 35.4112C20.1542 35.3962 20.1542 35.3811 20.1542 35.3661C20.1542 35.351 20.1541 35.336 20.1541 35.321C20.1541 35.3059 20.154 35.2909 20.154 35.2759C20.154 35.2608 20.1539 35.2458 20.1539 35.2308C20.1539 35.2157 20.1538 35.2007 20.1538 35.1857C20.1538 35.1707 20.1538 35.1556 20.1537 35.1406C20.1537 35.1256 20.1537 35.1106 20.1536 35.0955C20.1536 35.0805 20.1536 35.0655 20.1535 35.0505C20.1535 35.0355 20.1535 35.0204 20.1534 35.0054C20.1534 34.9904 20.1534 34.9754 20.1534 34.9604C20.1533 34.9454 20.1533 34.9304 20.1533 34.9154C20.1532 34.9004 20.1532 34.8854 20.1532 34.8704C20.1531 34.8554 20.1531 34.8403 20.1531 34.8253C20.153 34.8103 20.153 34.7953 20.153 34.7804C20.1529 34.7654 20.1529 34.7504 20.1529 34.7354C20.1529 34.7204 20.1528 34.7054 20.1528 34.6904C20.1528 34.6754 20.1527 34.6604 20.1527 34.6454C20.1527 34.6304 20.1526 34.6155 20.1526 34.6005C20.1526 34.5855 20.1525 34.5705 20.1525 34.5555C20.1525 34.5405 20.1525 34.5256 20.1524 34.5106C20.1524 34.4956 20.1524 34.4806 20.1523 34.4657C20.1523 34.4507 20.1523 34.4357 20.1522 34.4208C20.1522 34.4058 20.1522 34.3908 20.1521 34.3758C20.1521 34.3609 20.1521 34.3459 20.1521 34.331L18.1521 34.3351ZM19.6005 59.5596C26.1377 56.7207 31.7321 53.5016 36.3709 49.8949L35.1433 48.316C30.6623 51.7999 25.22 54.9388 18.8038 57.7251L19.6005 59.5596ZM36.3588 49.9042C41.1129 46.3233 45.4952 42.3704 49.5049 38.0458L48.0383 36.686C44.1099 40.9229 39.8159 44.7964 35.1555 48.3067L36.3588 49.9042ZM49.5163 38.0333C53.5034 33.5848 57.4875 28.7687 61.4687 23.5858L59.8827 22.3675C55.9293 27.5141 51.9774 32.2909 48.027 36.6985L49.5163 38.0333ZM61.4769 23.575C65.4291 18.2827 69.9711 12.6177 75.1042 6.5796L73.5803 5.28421C68.4252 11.3483 63.8562 17.0465 59.8745 22.3783L61.4769 23.575ZM74.9744 6.70672C77.189 4.8998 79.4022 4.04854 81.6312 4.04395L81.6271 2.04395C78.8469 2.04968 76.2021 3.12373 73.7101 5.1571L74.9744 6.70672ZM81.6312 4.04395C83.7317 4.03962 85.4652 4.7469 86.8953 6.17115L88.3066 4.75402C86.4888 2.9437 84.2411 2.03856 81.6271 2.04395L81.6312 4.04395ZM86.8953 6.17115C88.313 7.58299 89.04 9.381 89.0447 11.6475L91.0447 11.6433C91.039 8.90062 90.1369 6.57674 88.3066 4.75402L86.8953 6.17115ZM89.0447 11.6475C89.047 12.8024 88.7259 14.2944 88.0156 16.1525L89.8838 16.8666C90.6389 14.8911 91.0477 13.1403 91.0447 11.6433L89.0447 11.6475ZM88.1891 15.8603C83.7709 21.0365 79.7923 25.9195 76.2541 30.5092L77.8381 31.7303C81.3529 27.171 85.31 22.3139 89.7103 17.1588L88.1891 15.8603ZM76.2639 30.4967C72.743 34.9165 69.296 39.1145 65.9228 43.0909L67.4479 44.3847C70.8355 40.3914 74.2956 36.1774 77.8283 31.7428L76.2639 30.4967ZM65.9228 43.0909C62.5588 47.0564 59.1223 50.8008 55.6133 54.3243L57.0304 55.7356C60.5786 52.1727 64.0511 48.389 67.4479 44.3847L65.9228 43.0909ZM55.6133 54.3243C52.2727 57.6786 48.5648 60.8185 44.4878 63.7434L45.6537 65.3684C49.815 62.3831 53.6078 59.1723 57.0304 55.7356L55.6133 54.3243ZM44.3423 65.241C53.0537 74.5047 61.6913 83.6948 70.2551 92.8115L71.7129 91.4422C63.1488 82.3252 54.5109 73.1348 45.7992 63.8708L44.3423 65.241ZM70.2607 92.8174C78.8206 101.783 87.3808 110.896 95.9415 120.156L97.4101 118.798C88.8423 109.53 80.2747 100.41 71.7073 91.4363L70.2607 92.8174ZM95.8907 120.097C97.3839 121.989 98.1162 124.056 98.1208 126.325L100.121 126.321C100.115 123.581 99.2174 121.084 97.4608 118.858L95.8907 120.097ZM98.1208 126.325C98.1255 128.592 97.4059 130.393 95.9941 131.81L97.4112 133.222C99.2339 131.391 100.126 129.064 100.121 126.321L98.1208 126.325ZM96.0285 131.777C94.6093 133.073 92.8675 133.734 90.7383 133.738L90.7424 135.738C93.3278 135.733 95.5608 134.912 97.3769 133.254L96.0285 131.777ZM90.7383 133.738C89.6814 133.74 88.4541 133.544 87.0465 133.125L86.4757 135.042C88.0165 135.501 89.442 135.741 90.7424 135.738L90.7383 133.738ZM87.1654 133.169C85.9942 132.651 84.8515 131.793 83.7443 130.552L82.2523 131.884C83.5079 133.291 84.8737 134.342 86.3569 134.998L87.1654 133.169ZM83.7495 130.558C82.7005 129.364 80.7678 127.292 77.9633 124.352L76.5161 125.732C79.3222 128.674 81.2286 130.719 82.2471 131.878L83.7495 130.558ZM77.9633 124.352C75.1562 121.409 71.9065 118.026 68.2144 114.202L66.7756 115.591C70.4657 119.413 73.7125 122.793 76.5161 125.732L77.9633 124.352ZM68.241 114.231C64.6868 110.249 60.8383 106.121 56.6958 101.848L55.2598 103.241C59.3854 107.496 63.215 111.603 66.749 115.562L68.241 114.231ZM56.7197 101.874C52.7262 97.4552 48.8796 93.3297 45.18 89.498L43.7412 90.8872C47.4239 94.7014 51.2554 98.8106 55.2359 103.215L56.7197 101.874ZM45.2067 89.5267C41.6573 85.5502 38.4749 82.086 35.66 79.1352L34.2129 80.5157C37.0087 83.4465 40.1757 86.8937 43.7146 90.8585L45.2067 89.5267ZM35.66 79.1352C32.8539 76.1935 30.9476 74.1486 29.9291 72.9894L28.4266 74.3095C29.4756 75.5033 31.4083 77.5757 34.2129 80.5157L35.66 79.1352ZM28.7479 72.7466C25.9854 74.0621 22.6282 75.4575 18.6715 76.9323L19.37 78.8063C23.3631 77.3181 26.7773 75.9002 29.6078 74.5523L28.7479 72.7466ZM18.0208 77.8713C18.0384 86.4222 18.129 94.6051 18.2926 102.42L20.2921 102.378C20.1288 94.5769 20.0384 86.4066 20.0208 77.8672L18.0208 77.8713ZM18.2926 102.42C18.4558 110.087 18.6935 118.121 19.0057 126.523L21.0043 126.449C20.6925 118.057 20.4551 110.033 20.2921 102.378L18.2926 102.42ZM125.295 131.573L126.294 131.614C126.295 131.596 126.295 131.578 126.295 131.56L125.295 131.573ZM123.756 135.333L123.108 134.571C123.087 134.589 123.067 134.608 123.047 134.627L123.756 135.333ZM117.9 135.456L118.574 134.717C118.562 134.706 118.551 134.696 118.538 134.686L117.9 135.456ZM116.235 131.923L115.235 131.936C115.236 131.978 115.239 132.019 115.245 132.06L116.235 131.923ZM115.97 110.708L114.97 110.71L114.97 110.72L115.97 110.708ZM115.816 89.493L114.846 89.2525C114.825 89.3353 114.815 89.4204 114.816 89.5057L115.816 89.493ZM117.577 86.1744L118.251 86.913L118.251 86.913L117.577 86.1744ZM122.991 86.0528L122.36 86.8281C122.371 86.8369 122.382 86.8456 122.393 86.854L122.991 86.0528ZM124.876 89.1428L125.876 89.1301C125.875 89.0478 125.864 88.9659 125.843 88.8863L124.876 89.1428ZM125.03 110.358L124.03 110.36L124.031 110.37L125.03 110.358ZM116.544 67.392L117.277 68.0728C117.284 68.065 117.291 68.057 117.298 68.049L116.544 67.392ZM124.058 67.3765L123.307 68.0366C123.321 68.0532 123.337 68.0694 123.352 68.0851L124.058 67.3765ZM124.075 75.5533L123.344 74.8709L123.342 74.8725L124.075 75.5533ZM116.561 75.5688L115.81 76.2288C115.817 76.2369 115.824 76.2448 115.831 76.2526L116.561 75.5688ZM124.296 131.532C124.233 133.049 123.785 133.996 123.108 134.571L124.403 136.095C125.639 135.045 126.217 133.485 126.294 131.614L124.296 131.532ZM123.047 134.627C122.326 135.352 121.577 135.664 120.773 135.665L120.777 137.665C122.183 137.662 123.422 137.086 124.465 136.039L123.047 134.627ZM120.773 135.665C120.032 135.667 119.307 135.386 118.574 134.717L117.226 136.194C118.264 137.142 119.456 137.668 120.777 137.665L120.773 135.665ZM118.538 134.686C117.913 134.167 117.43 133.263 117.226 131.786L115.245 132.06C115.489 133.824 116.116 135.275 117.261 136.225L118.538 134.686ZM117.235 131.91C117.147 124.986 117.059 117.915 116.97 110.696L114.97 110.72C115.059 117.94 115.147 125.011 115.235 131.936L117.235 131.91ZM116.97 110.706C116.955 103.484 116.904 96.4083 116.816 89.4803L114.816 89.5057C114.904 96.4263 114.956 103.495 114.97 110.71L116.97 110.706ZM116.787 89.7335C117.122 88.3795 117.635 87.4759 118.251 86.913L116.903 85.4359C115.902 86.3496 115.241 87.6584 114.846 89.2525L116.787 89.7335ZM118.251 86.913C118.889 86.3311 119.573 86.0654 120.339 86.0638L120.335 84.0638C119.039 84.0665 117.883 84.5412 116.903 85.4359L118.251 86.913ZM120.339 86.0638C121.044 86.0623 121.709 86.298 122.36 86.8281L123.623 85.2775C122.65 84.4849 121.546 84.0613 120.335 84.0638L120.339 86.0638ZM122.393 86.854C123.049 87.3435 123.578 88.1504 123.91 89.3993L125.843 88.8863C125.432 87.3375 124.705 86.0844 123.59 85.2516L122.393 86.854ZM123.876 89.1555C123.964 96.0762 124.016 103.144 124.03 110.36L126.03 110.356C126.016 103.133 125.964 96.0582 125.876 89.1301L123.876 89.1555ZM124.031 110.37C124.119 117.589 124.207 124.661 124.295 131.586L126.295 131.56C126.207 124.636 126.119 117.565 126.03 110.346L124.031 110.37ZM116.006 71.4815C116.003 70.0942 116.433 68.9802 117.277 68.0728L115.812 66.7112C114.597 68.018 114.002 69.6318 114.006 71.4856L116.006 71.4815ZM117.298 68.049C118.151 67.0701 119.134 66.6187 120.299 66.6163L120.295 64.6163C118.514 64.62 116.995 65.3524 115.79 66.7351L117.298 68.049ZM120.299 66.6163C121.464 66.6139 122.45 67.0612 123.307 68.0366L124.809 66.7165C123.599 65.3388 122.077 64.6126 120.295 64.6163L120.299 66.6163ZM123.352 68.0851C124.264 68.993 124.721 70.0972 124.724 71.4636L126.724 71.4594C126.72 69.5846 126.066 67.9654 124.764 66.668L123.352 68.0851ZM124.724 71.4636C124.726 72.7443 124.281 73.8666 123.344 74.8709L124.806 76.2357C126.073 74.8782 126.727 73.2726 126.724 71.4594L124.724 71.4636ZM123.342 74.8725C122.496 75.7825 121.507 76.2161 120.319 76.2185L120.323 78.2185C122.082 78.2149 123.595 77.5383 124.807 76.2341L123.342 74.8725ZM120.319 76.2185C119.131 76.2209 118.14 75.7915 117.291 74.885L115.831 76.2526C117.049 77.5518 118.565 78.2221 120.323 78.2185L120.319 76.2185ZM117.312 74.9087C116.436 73.9117 116.008 72.783 116.006 71.4815L114.006 71.4856C114.009 73.2781 114.618 74.8729 115.81 76.2288L117.312 74.9087Z" fill="black"/>
</g>
<defs>
<filter id="filter0_b" x="-3.81702" y="-3.15356" width="134.677" height="145.067" filterUnits="userSpaceOnUse" color-interpolation-filters="sRGB">
<feFlood flood-opacity="0" result="BackgroundImageFix"/>
<feGaussianBlur in="BackgroundImage" stdDeviation="2"/>
<feComposite in2="SourceAlpha" operator="in" result="effect1_backgroundBlur"/>
<feBlend mode="normal" in="SourceGraphic" in2="effect1_backgroundBlur" result="shape"/>
</filter>
<linearGradient id="paint0_linear" x1="46.4997" y1="-43.729" x2="46.9552" y2="177.27" gradientUnits="userSpaceOnUse">
<stop offset="0.453039" stop-color="#8F2BA8" stop-opacity="0.75"/>
<stop offset="0.767956" stop-color="white" stop-opacity="0"/>
</linearGradient>
<linearGradient id="paint1_linear" x1="46.4997" y1="-43.729" x2="46.9552" y2="177.27" gradientUnits="userSpaceOnUse">
<stop offset="0.226519" stop-color="#AE6789"/>
<stop offset="1" stop-color="white" stop-opacity="0"/>
</linearGradient>
</defs>
</svg>
